%TF.GenerationSoftware,KiCad,Pcbnew,9.0.4*%
%TF.CreationDate,2026-04-07T21:12:44-07:00*%
%TF.ProjectId,theBoerd,74686542-6f65-4726-942e-6b696361645f,rev?*%
%TF.SameCoordinates,Original*%
%TF.FileFunction,Paste,Bot*%
%TF.FilePolarity,Positive*%
%FSLAX46Y46*%
G04 Gerber Fmt 4.6, Leading zero omitted, Abs format (unit mm)*
G04 Created by KiCad (PCBNEW 9.0.4) date 2026-04-07 21:12:44*
%MOMM*%
%LPD*%
G01*
G04 APERTURE LIST*
G04 Aperture macros list*
%AMRoundRect*
0 Rectangle with rounded corners*
0 $1 Rounding radius*
0 $2 $3 $4 $5 $6 $7 $8 $9 X,Y pos of 4 corners*
0 Add a 4 corners polygon primitive as box body*
4,1,4,$2,$3,$4,$5,$6,$7,$8,$9,$2,$3,0*
0 Add four circle primitives for the rounded corners*
1,1,$1+$1,$2,$3*
1,1,$1+$1,$4,$5*
1,1,$1+$1,$6,$7*
1,1,$1+$1,$8,$9*
0 Add four rect primitives between the rounded corners*
20,1,$1+$1,$2,$3,$4,$5,0*
20,1,$1+$1,$4,$5,$6,$7,0*
20,1,$1+$1,$6,$7,$8,$9,0*
20,1,$1+$1,$8,$9,$2,$3,0*%
G04 Aperture macros list end*
%ADD10RoundRect,0.200000X1.075000X1.050000X-1.075000X1.050000X-1.075000X-1.050000X1.075000X-1.050000X0*%
%ADD11RoundRect,0.250000X1.075000X-0.375000X1.075000X0.375000X-1.075000X0.375000X-1.075000X-0.375000X0*%
G04 APERTURE END LIST*
D10*
%TO.C,CH60*%
X307427500Y-110472500D03*
X320354500Y-107932500D03*
%TD*%
%TO.C,CH28*%
X262183750Y-72372500D03*
X275110750Y-69832500D03*
%TD*%
D11*
%TO.C,D56*%
X233550000Y-119175000D03*
X233550000Y-116375000D03*
%TD*%
%TO.C,D46*%
X405000000Y-100125000D03*
X405000000Y-97325000D03*
%TD*%
%TO.C,D6*%
X190687500Y-54881250D03*
X190687500Y-52081250D03*
%TD*%
D10*
%TO.C,CH79*%
X78827500Y-148572500D03*
X91754500Y-146032500D03*
%TD*%
%TO.C,CH50*%
X105021250Y-110472500D03*
X117948250Y-107932500D03*
%TD*%
D11*
%TO.C,D17*%
X66862500Y-81075000D03*
X66862500Y-78275000D03*
%TD*%
D10*
%TO.C,CH5*%
X147883750Y-46178750D03*
X160810750Y-43638750D03*
%TD*%
%TO.C,CH42*%
X271708750Y-91422500D03*
X284635750Y-88882500D03*
%TD*%
D11*
%TO.C,D2*%
X104962500Y-54881250D03*
X104962500Y-52081250D03*
%TD*%
%TO.C,D20*%
X124012500Y-81075000D03*
X124012500Y-78275000D03*
%TD*%
%TO.C,D29*%
X295462500Y-81075000D03*
X295462500Y-78275000D03*
%TD*%
D10*
%TO.C,CH18*%
X71683750Y-72372500D03*
X84610750Y-69832500D03*
%TD*%
D11*
%TO.C,D105*%
X534587500Y-131081250D03*
X534587500Y-128281250D03*
%TD*%
D10*
%TO.C,CH34*%
X119308750Y-91422500D03*
X132235750Y-88882500D03*
%TD*%
D11*
%TO.C,D66*%
X128775000Y-138225000D03*
X128775000Y-135425000D03*
%TD*%
D10*
%TO.C,CH26*%
X224083750Y-72372500D03*
X237010750Y-69832500D03*
%TD*%
D11*
%TO.C,D16*%
X424050000Y-54881250D03*
X424050000Y-52081250D03*
%TD*%
%TO.C,D82*%
X259743750Y-157275000D03*
X259743750Y-154475000D03*
%TD*%
%TO.C,D23*%
X181162500Y-81075000D03*
X181162500Y-78275000D03*
%TD*%
D10*
%TO.C,CH110*%
X567983750Y-122378750D03*
X580910750Y-119838750D03*
%TD*%
%TO.C,CH37*%
X176458750Y-91422500D03*
X189385750Y-88882500D03*
%TD*%
D11*
%TO.C,D87*%
X395475000Y-157275000D03*
X395475000Y-154475000D03*
%TD*%
D10*
%TO.C,CH12*%
X300283750Y-46178750D03*
X313210750Y-43638750D03*
%TD*%
D11*
%TO.C,D92*%
X496487500Y-73931250D03*
X496487500Y-71131250D03*
%TD*%
%TO.C,D61*%
X385950000Y-119175000D03*
X385950000Y-116375000D03*
%TD*%
D10*
%TO.C,CH36*%
X157408750Y-91422500D03*
X170335750Y-88882500D03*
%TD*%
D11*
%TO.C,D86*%
X376425000Y-157275000D03*
X376425000Y-154475000D03*
%TD*%
%TO.C,D72*%
X243075000Y-138225000D03*
X243075000Y-135425000D03*
%TD*%
%TO.C,D55*%
X214500000Y-119175000D03*
X214500000Y-116375000D03*
%TD*%
D10*
%TO.C,CH6*%
X176458750Y-46178750D03*
X189385750Y-43638750D03*
%TD*%
D11*
%TO.C,D43*%
X304987500Y-100125000D03*
X304987500Y-97325000D03*
%TD*%
D10*
%TO.C,CH44*%
X314571250Y-91422500D03*
X327498250Y-88882500D03*
%TD*%
%TO.C,CH39*%
X214558750Y-91422500D03*
X227485750Y-88882500D03*
%TD*%
D11*
%TO.C,D75*%
X316893750Y-138225000D03*
X316893750Y-135425000D03*
%TD*%
D10*
%TO.C,CH84*%
X293140000Y-148572500D03*
X306067000Y-146032500D03*
%TD*%
D11*
%TO.C,D7*%
X209737500Y-54881250D03*
X209737500Y-52081250D03*
%TD*%
D10*
%TO.C,CH70*%
X190746250Y-129522500D03*
X203673250Y-126982500D03*
%TD*%
D11*
%TO.C,D79*%
X93056250Y-157275000D03*
X93056250Y-154475000D03*
%TD*%
%TO.C,D14*%
X385950000Y-54881250D03*
X385950000Y-52081250D03*
%TD*%
D10*
%TO.C,CH14*%
X371721250Y-46178750D03*
X384648250Y-43638750D03*
%TD*%
%TO.C,CH74*%
X266946250Y-129522500D03*
X279873250Y-126982500D03*
%TD*%
%TO.C,CH49*%
X85971250Y-110472500D03*
X98898250Y-107932500D03*
%TD*%
D11*
%TO.C,D102*%
X553637500Y-121556250D03*
X553637500Y-118756250D03*
%TD*%
%TO.C,D88*%
X496487500Y-54881250D03*
X496487500Y-52081250D03*
%TD*%
D10*
%TO.C,CH8*%
X214558750Y-46178750D03*
X227485750Y-43638750D03*
%TD*%
D11*
%TO.C,D108*%
X620312500Y-131081250D03*
X620312500Y-128281250D03*
%TD*%
D10*
%TO.C,CH48*%
X59777500Y-110472500D03*
X72704500Y-107932500D03*
%TD*%
D11*
%TO.C,D81*%
X188306250Y-157275000D03*
X188306250Y-154475000D03*
%TD*%
%TO.C,D40*%
X247837500Y-100125000D03*
X247837500Y-97325000D03*
%TD*%
%TO.C,D50*%
X119250000Y-119175000D03*
X119250000Y-116375000D03*
%TD*%
D10*
%TO.C,CH107*%
X567983750Y-103328750D03*
X580910750Y-100788750D03*
%TD*%
D11*
%TO.C,D77*%
X395475000Y-138225000D03*
X395475000Y-135425000D03*
%TD*%
D10*
%TO.C,CH61*%
X371721250Y-110472500D03*
X384648250Y-107932500D03*
%TD*%
D11*
%TO.C,D100*%
X515537500Y-112031250D03*
X515537500Y-109231250D03*
%TD*%
%TO.C,D76*%
X376425000Y-138225000D03*
X376425000Y-135425000D03*
%TD*%
%TO.C,D109*%
X601262500Y-131081250D03*
X601262500Y-128281250D03*
%TD*%
D10*
%TO.C,CH108*%
X606083750Y-122378750D03*
X619010750Y-119838750D03*
%TD*%
%TO.C,CH56*%
X219321250Y-110472500D03*
X232248250Y-107932500D03*
%TD*%
D11*
%TO.C,D78*%
X69243750Y-157275000D03*
X69243750Y-154475000D03*
%TD*%
D10*
%TO.C,CH47*%
X409821250Y-91422500D03*
X422748250Y-88882500D03*
%TD*%
D11*
%TO.C,D30*%
X324037500Y-81075000D03*
X324037500Y-78275000D03*
%TD*%
D10*
%TO.C,CH81*%
X174077500Y-148572500D03*
X187004500Y-146032500D03*
%TD*%
D11*
%TO.C,D103*%
X506012500Y-131081250D03*
X506012500Y-128281250D03*
%TD*%
D10*
%TO.C,CH88*%
X482258750Y-46178750D03*
X495185750Y-43638750D03*
%TD*%
D11*
%TO.C,D97*%
X515537500Y-92981250D03*
X515537500Y-90181250D03*
%TD*%
D10*
%TO.C,CH25*%
X205033750Y-72372500D03*
X217960750Y-69832500D03*
%TD*%
D11*
%TO.C,D35*%
X152587500Y-100125000D03*
X152587500Y-97325000D03*
%TD*%
%TO.C,D15*%
X405000000Y-54881250D03*
X405000000Y-52081250D03*
%TD*%
%TO.C,D10*%
X275940000Y-54881250D03*
X275940000Y-52081250D03*
%TD*%
%TO.C,D38*%
X209737500Y-100125000D03*
X209737500Y-97325000D03*
%TD*%
%TO.C,D48*%
X74006250Y-119175000D03*
X74006250Y-116375000D03*
%TD*%
%TO.C,D70*%
X204975000Y-138225000D03*
X204975000Y-135425000D03*
%TD*%
D10*
%TO.C,CH52*%
X143121250Y-110472500D03*
X156048250Y-107932500D03*
%TD*%
D11*
%TO.C,D91*%
X553637500Y-54881250D03*
X553637500Y-52081250D03*
%TD*%
%TO.C,D19*%
X104962500Y-81075000D03*
X104962500Y-78275000D03*
%TD*%
%TO.C,D53*%
X176400000Y-119175000D03*
X176400000Y-116375000D03*
%TD*%
D10*
%TO.C,CH41*%
X252658750Y-91422500D03*
X265585750Y-88882500D03*
%TD*%
%TO.C,CH3*%
X109783750Y-46178750D03*
X122710750Y-43638750D03*
%TD*%
%TO.C,CH35*%
X138358750Y-91422500D03*
X151285750Y-88882500D03*
%TD*%
%TO.C,CH23*%
X166933750Y-72372500D03*
X179860750Y-69832500D03*
%TD*%
%TO.C,CH62*%
X390771250Y-110472500D03*
X403698250Y-107932500D03*
%TD*%
D11*
%TO.C,D51*%
X138300000Y-119175000D03*
X138300000Y-116375000D03*
%TD*%
D10*
%TO.C,CH90*%
X520358750Y-46178750D03*
X533285750Y-43638750D03*
%TD*%
%TO.C,CH54*%
X181221250Y-110472500D03*
X194148250Y-107932500D03*
%TD*%
D11*
%TO.C,D21*%
X143062500Y-81075000D03*
X143062500Y-78275000D03*
%TD*%
%TO.C,D62*%
X405000000Y-119175000D03*
X405000000Y-116375000D03*
%TD*%
%TO.C,D36*%
X171637500Y-100125000D03*
X171637500Y-97325000D03*
%TD*%
%TO.C,D26*%
X238312500Y-81075000D03*
X238312500Y-78275000D03*
%TD*%
%TO.C,D107*%
X582212500Y-112031250D03*
X582212500Y-109231250D03*
%TD*%
D10*
%TO.C,CH78*%
X55015000Y-148572500D03*
X67942000Y-146032500D03*
%TD*%
%TO.C,CH20*%
X109783750Y-72372500D03*
X122710750Y-69832500D03*
%TD*%
D11*
%TO.C,D34*%
X133537500Y-100125000D03*
X133537500Y-97325000D03*
%TD*%
D10*
%TO.C,CH29*%
X281233750Y-72372500D03*
X294160750Y-69832500D03*
%TD*%
%TO.C,CH11*%
X281233750Y-46178750D03*
X294160750Y-43638750D03*
%TD*%
%TO.C,CH33*%
X100258750Y-91422500D03*
X113185750Y-88882500D03*
%TD*%
%TO.C,CH86*%
X362196250Y-148572500D03*
X375123250Y-146032500D03*
%TD*%
D11*
%TO.C,D65*%
X109725000Y-138225000D03*
X109725000Y-135425000D03*
%TD*%
%TO.C,D74*%
X281175000Y-138225000D03*
X281175000Y-135425000D03*
%TD*%
%TO.C,D24*%
X200212500Y-81075000D03*
X200212500Y-78275000D03*
%TD*%
%TO.C,D90*%
X534587500Y-54881250D03*
X534587500Y-52081250D03*
%TD*%
D10*
%TO.C,CH105*%
X520358750Y-122378750D03*
X533285750Y-119838750D03*
%TD*%
%TO.C,CH89*%
X501308750Y-46178750D03*
X514235750Y-43638750D03*
%TD*%
%TO.C,CH15*%
X390771250Y-46178750D03*
X403698250Y-43638750D03*
%TD*%
%TO.C,CH80*%
X102640000Y-148572500D03*
X115567000Y-146032500D03*
%TD*%
D11*
%TO.C,D8*%
X228787500Y-54881250D03*
X228787500Y-52081250D03*
%TD*%
D10*
%TO.C,CH83*%
X269327500Y-148572500D03*
X282254500Y-146032500D03*
%TD*%
%TO.C,CH43*%
X290758750Y-91422500D03*
X303685750Y-88882500D03*
%TD*%
%TO.C,CH24*%
X185983750Y-72372500D03*
X198910750Y-69832500D03*
%TD*%
D11*
%TO.C,D13*%
X333562500Y-54881250D03*
X333562500Y-52081250D03*
%TD*%
D10*
%TO.C,CH7*%
X195508750Y-46178750D03*
X208435750Y-43638750D03*
%TD*%
%TO.C,CH101*%
X520358750Y-103328750D03*
X533285750Y-100788750D03*
%TD*%
D11*
%TO.C,D5*%
X162112500Y-54881250D03*
X162112500Y-52081250D03*
%TD*%
D10*
%TO.C,CH4*%
X128833750Y-46178750D03*
X141760750Y-43638750D03*
%TD*%
%TO.C,CH10*%
X262183750Y-46178750D03*
X275110750Y-43638750D03*
%TD*%
%TO.C,CH95*%
X539408750Y-74753750D03*
X552335750Y-72213750D03*
%TD*%
%TO.C,CH82*%
X245515000Y-148572500D03*
X258442000Y-146032500D03*
%TD*%
D11*
%TO.C,D22*%
X162112500Y-81075000D03*
X162112500Y-78275000D03*
%TD*%
%TO.C,D84*%
X307368750Y-157275000D03*
X307368750Y-154475000D03*
%TD*%
%TO.C,D4*%
X143062500Y-54881250D03*
X143062500Y-52081250D03*
%TD*%
D10*
%TO.C,CH97*%
X501308750Y-84278750D03*
X514235750Y-81738750D03*
%TD*%
%TO.C,CH22*%
X147883750Y-72372500D03*
X160810750Y-69832500D03*
%TD*%
D11*
%TO.C,D37*%
X190687500Y-100125000D03*
X190687500Y-97325000D03*
%TD*%
D10*
%TO.C,CH75*%
X302665000Y-129522500D03*
X315592000Y-126982500D03*
%TD*%
D11*
%TO.C,D71*%
X224025000Y-138225000D03*
X224025000Y-135425000D03*
%TD*%
D10*
%TO.C,CH104*%
X606083750Y-103328750D03*
X619010750Y-100788750D03*
%TD*%
%TO.C,CH2*%
X90733750Y-46178750D03*
X103660750Y-43638750D03*
%TD*%
%TO.C,CH27*%
X243133750Y-72372500D03*
X256060750Y-69832500D03*
%TD*%
D11*
%TO.C,D31*%
X71625000Y-100125000D03*
X71625000Y-97325000D03*
%TD*%
%TO.C,D47*%
X424050000Y-100125000D03*
X424050000Y-97325000D03*
%TD*%
D10*
%TO.C,CH98*%
X520358750Y-84278750D03*
X533285750Y-81738750D03*
%TD*%
%TO.C,CH66*%
X114546250Y-129522500D03*
X127473250Y-126982500D03*
%TD*%
D11*
%TO.C,D9*%
X247837500Y-54881250D03*
X247837500Y-52081250D03*
%TD*%
D10*
%TO.C,CH46*%
X390771250Y-91422500D03*
X403698250Y-88882500D03*
%TD*%
%TO.C,CH71*%
X209796250Y-129522500D03*
X222723250Y-126982500D03*
%TD*%
%TO.C,CH68*%
X152646250Y-129522500D03*
X165573250Y-126982500D03*
%TD*%
D11*
%TO.C,D98*%
X534587500Y-92981250D03*
X534587500Y-90181250D03*
%TD*%
D10*
%TO.C,CH59*%
X276471250Y-110472500D03*
X289398250Y-107932500D03*
%TD*%
%TO.C,CH106*%
X587033750Y-103328750D03*
X599960750Y-100788750D03*
%TD*%
%TO.C,CH92*%
X482258750Y-65228750D03*
X495185750Y-62688750D03*
%TD*%
D11*
%TO.C,D52*%
X157350000Y-119175000D03*
X157350000Y-116375000D03*
%TD*%
%TO.C,D104*%
X620312500Y-112031250D03*
X620312500Y-109231250D03*
%TD*%
D10*
%TO.C,CH9*%
X233608750Y-46178750D03*
X246535750Y-43638750D03*
%TD*%
D11*
%TO.C,D58*%
X271650000Y-119175000D03*
X271650000Y-116375000D03*
%TD*%
D10*
%TO.C,CH87*%
X381246250Y-148572500D03*
X394173250Y-146032500D03*
%TD*%
%TO.C,CH76*%
X362196250Y-129522500D03*
X375123250Y-126982500D03*
%TD*%
%TO.C,CH65*%
X95496250Y-129522500D03*
X108423250Y-126982500D03*
%TD*%
D11*
%TO.C,D12*%
X314512500Y-54881250D03*
X314512500Y-52081250D03*
%TD*%
%TO.C,D41*%
X266887500Y-100125000D03*
X266887500Y-97325000D03*
%TD*%
%TO.C,D18*%
X85912500Y-81075000D03*
X85912500Y-78275000D03*
%TD*%
%TO.C,D32*%
X95437500Y-100125000D03*
X95437500Y-97325000D03*
%TD*%
D10*
%TO.C,CH1*%
X52633750Y-46178750D03*
X65560750Y-43638750D03*
%TD*%
%TO.C,CH17*%
X52633750Y-72372500D03*
X65560750Y-69832500D03*
%TD*%
%TO.C,CH99*%
X482258750Y-103328750D03*
X495185750Y-100788750D03*
%TD*%
D11*
%TO.C,D94*%
X534587500Y-73931250D03*
X534587500Y-71131250D03*
%TD*%
%TO.C,D89*%
X515537500Y-54881250D03*
X515537500Y-52081250D03*
%TD*%
%TO.C,D85*%
X331181250Y-157275000D03*
X331181250Y-154475000D03*
%TD*%
%TO.C,D28*%
X276412500Y-81075000D03*
X276412500Y-78275000D03*
%TD*%
%TO.C,D80*%
X116868750Y-157275000D03*
X116868750Y-154475000D03*
%TD*%
%TO.C,D110*%
X582212500Y-131081250D03*
X582212500Y-128281250D03*
%TD*%
%TO.C,D3*%
X124012500Y-54881250D03*
X124012500Y-52081250D03*
%TD*%
D10*
%TO.C,CH51*%
X124071250Y-110472500D03*
X136998250Y-107932500D03*
%TD*%
%TO.C,CH32*%
X81208750Y-91422500D03*
X94135750Y-88882500D03*
%TD*%
D11*
%TO.C,D64*%
X78768750Y-138225000D03*
X78768750Y-135425000D03*
%TD*%
D10*
%TO.C,CH40*%
X233608750Y-91422500D03*
X246535750Y-88882500D03*
%TD*%
D11*
%TO.C,D33*%
X114487500Y-100125000D03*
X114487500Y-97325000D03*
%TD*%
%TO.C,D25*%
X219262500Y-81075000D03*
X219262500Y-78275000D03*
%TD*%
%TO.C,D11*%
X295462500Y-54881250D03*
X295462500Y-52081250D03*
%TD*%
D10*
%TO.C,CH73*%
X247896250Y-129522500D03*
X260823250Y-126982500D03*
%TD*%
D11*
%TO.C,D63*%
X424050000Y-119175000D03*
X424050000Y-116375000D03*
%TD*%
D10*
%TO.C,CH13*%
X319333750Y-46178750D03*
X332260750Y-43638750D03*
%TD*%
D11*
%TO.C,D101*%
X534587500Y-112031250D03*
X534587500Y-109231250D03*
%TD*%
%TO.C,D95*%
X553637500Y-83456250D03*
X553637500Y-80656250D03*
%TD*%
%TO.C,D49*%
X100200000Y-119175000D03*
X100200000Y-116375000D03*
%TD*%
D10*
%TO.C,CH53*%
X162171250Y-110472500D03*
X175098250Y-107932500D03*
%TD*%
%TO.C,CH102*%
X539408750Y-112853750D03*
X552335750Y-110313750D03*
%TD*%
%TO.C,CH21*%
X128833750Y-72372500D03*
X141760750Y-69832500D03*
%TD*%
%TO.C,CH55*%
X200271250Y-110472500D03*
X213198250Y-107932500D03*
%TD*%
D11*
%TO.C,D44*%
X328800000Y-100125000D03*
X328800000Y-97325000D03*
%TD*%
D10*
%TO.C,CH30*%
X309808750Y-72372500D03*
X322735750Y-69832500D03*
%TD*%
%TO.C,CH77*%
X381246250Y-129522500D03*
X394173250Y-126982500D03*
%TD*%
%TO.C,CH19*%
X90733750Y-72372500D03*
X103660750Y-69832500D03*
%TD*%
D11*
%TO.C,D69*%
X185925000Y-138225000D03*
X185925000Y-135425000D03*
%TD*%
%TO.C,D57*%
X252600000Y-119175000D03*
X252600000Y-116375000D03*
%TD*%
%TO.C,D93*%
X515537500Y-73931250D03*
X515537500Y-71131250D03*
%TD*%
%TO.C,D54*%
X195450000Y-119175000D03*
X195450000Y-116375000D03*
%TD*%
D10*
%TO.C,CH58*%
X257421250Y-110472500D03*
X270348250Y-107932500D03*
%TD*%
%TO.C,CH91*%
X539408750Y-46178750D03*
X552335750Y-43638750D03*
%TD*%
D11*
%TO.C,D42*%
X285937500Y-100125000D03*
X285937500Y-97325000D03*
%TD*%
%TO.C,D1*%
X66862500Y-54881250D03*
X66862500Y-52081250D03*
%TD*%
%TO.C,D106*%
X601262500Y-112031250D03*
X601262500Y-109231250D03*
%TD*%
D10*
%TO.C,CH100*%
X501308750Y-103328750D03*
X514235750Y-100788750D03*
%TD*%
D11*
%TO.C,D59*%
X290700000Y-119175000D03*
X290700000Y-116375000D03*
%TD*%
D10*
%TO.C,CH69*%
X171696250Y-129522500D03*
X184623250Y-126982500D03*
%TD*%
%TO.C,CH109*%
X587033750Y-122378750D03*
X599960750Y-119838750D03*
%TD*%
%TO.C,CH31*%
X57396250Y-91422500D03*
X70323250Y-88882500D03*
%TD*%
%TO.C,CH103*%
X491783750Y-122378750D03*
X504710750Y-119838750D03*
%TD*%
%TO.C,CH67*%
X133596250Y-129522500D03*
X146523250Y-126982500D03*
%TD*%
D11*
%TO.C,D73*%
X262125000Y-138225000D03*
X262125000Y-135425000D03*
%TD*%
%TO.C,D39*%
X228787500Y-100125000D03*
X228787500Y-97325000D03*
%TD*%
D10*
%TO.C,CH72*%
X228846250Y-129522500D03*
X241773250Y-126982500D03*
%TD*%
%TO.C,CH63*%
X409821250Y-110472500D03*
X422748250Y-107932500D03*
%TD*%
D11*
%TO.C,D45*%
X385950000Y-100125000D03*
X385950000Y-97325000D03*
%TD*%
D10*
%TO.C,CH57*%
X238371250Y-110472500D03*
X251298250Y-107932500D03*
%TD*%
%TO.C,CH85*%
X316952500Y-148572500D03*
X329879500Y-146032500D03*
%TD*%
D11*
%TO.C,D83*%
X283556250Y-157275000D03*
X283556250Y-154475000D03*
%TD*%
%TO.C,D67*%
X147825000Y-138225000D03*
X147825000Y-135425000D03*
%TD*%
%TO.C,D27*%
X257362500Y-81075000D03*
X257362500Y-78275000D03*
%TD*%
%TO.C,D99*%
X496487500Y-112031250D03*
X496487500Y-109231250D03*
%TD*%
D10*
%TO.C,CH16*%
X409821250Y-46178750D03*
X422748250Y-43638750D03*
%TD*%
%TO.C,CH93*%
X501308750Y-65228750D03*
X514235750Y-62688750D03*
%TD*%
D11*
%TO.C,D60*%
X321656250Y-119175000D03*
X321656250Y-116375000D03*
%TD*%
D10*
%TO.C,CH64*%
X64540000Y-129522500D03*
X77467000Y-126982500D03*
%TD*%
%TO.C,CH94*%
X520358750Y-65228750D03*
X533285750Y-62688750D03*
%TD*%
D11*
%TO.C,D96*%
X496487500Y-92981250D03*
X496487500Y-90181250D03*
%TD*%
%TO.C,D68*%
X166875000Y-138225000D03*
X166875000Y-135425000D03*
%TD*%
D10*
%TO.C,CH45*%
X371721250Y-91422500D03*
X384648250Y-88882500D03*
%TD*%
%TO.C,CH38*%
X195508750Y-91422500D03*
X208435750Y-88882500D03*
%TD*%
%TO.C,CH96*%
X482258750Y-84278750D03*
X495185750Y-81738750D03*
%TD*%
M02*
