%TF.GenerationSoftware,KiCad,Pcbnew,9.0.4*%
%TF.CreationDate,2026-04-02T16:29:00-07:00*%
%TF.ProjectId,theBoerd,74686542-6f65-4726-942e-6b696361645f,rev?*%
%TF.SameCoordinates,Original*%
%TF.FileFunction,Legend,Top*%
%TF.FilePolarity,Positive*%
%FSLAX46Y46*%
G04 Gerber Fmt 4.6, Leading zero omitted, Abs format (unit mm)*
G04 Created by KiCad (PCBNEW 9.0.4) date 2026-04-02 16:29:00*
%MOMM*%
%LPD*%
G01*
G04 APERTURE LIST*
%ADD10C,0.200000*%
%ADD11C,0.150000*%
%ADD12C,0.120000*%
%ADD13C,1.651000*%
G04 APERTURE END LIST*
D10*
X590452219Y-51690476D02*
X589976028Y-52023809D01*
X590452219Y-52261904D02*
X589452219Y-52261904D01*
X589452219Y-52261904D02*
X589452219Y-51880952D01*
X589452219Y-51880952D02*
X589499838Y-51785714D01*
X589499838Y-51785714D02*
X589547457Y-51738095D01*
X589547457Y-51738095D02*
X589642695Y-51690476D01*
X589642695Y-51690476D02*
X589785552Y-51690476D01*
X589785552Y-51690476D02*
X589880790Y-51738095D01*
X589880790Y-51738095D02*
X589928409Y-51785714D01*
X589928409Y-51785714D02*
X589976028Y-51880952D01*
X589976028Y-51880952D02*
X589976028Y-52261904D01*
X597452219Y-49690476D02*
X596976028Y-50023809D01*
X597452219Y-50261904D02*
X596452219Y-50261904D01*
X596452219Y-50261904D02*
X596452219Y-49880952D01*
X596452219Y-49880952D02*
X596499838Y-49785714D01*
X596499838Y-49785714D02*
X596547457Y-49738095D01*
X596547457Y-49738095D02*
X596642695Y-49690476D01*
X596642695Y-49690476D02*
X596785552Y-49690476D01*
X596785552Y-49690476D02*
X596880790Y-49738095D01*
X596880790Y-49738095D02*
X596928409Y-49785714D01*
X596928409Y-49785714D02*
X596976028Y-49880952D01*
X596976028Y-49880952D02*
X596976028Y-50261904D01*
X604452219Y-48690476D02*
X603976028Y-49023809D01*
X604452219Y-49261904D02*
X603452219Y-49261904D01*
X603452219Y-49261904D02*
X603452219Y-48880952D01*
X603452219Y-48880952D02*
X603499838Y-48785714D01*
X603499838Y-48785714D02*
X603547457Y-48738095D01*
X603547457Y-48738095D02*
X603642695Y-48690476D01*
X603642695Y-48690476D02*
X603785552Y-48690476D01*
X603785552Y-48690476D02*
X603880790Y-48738095D01*
X603880790Y-48738095D02*
X603928409Y-48785714D01*
X603928409Y-48785714D02*
X603976028Y-48880952D01*
X603976028Y-48880952D02*
X603976028Y-49261904D01*
D11*
X587039524Y-36494819D02*
X587039524Y-35494819D01*
X587039524Y-35494819D02*
X587277619Y-35494819D01*
X587277619Y-35494819D02*
X587420476Y-35542438D01*
X587420476Y-35542438D02*
X587515714Y-35637676D01*
X587515714Y-35637676D02*
X587563333Y-35732914D01*
X587563333Y-35732914D02*
X587610952Y-35923390D01*
X587610952Y-35923390D02*
X587610952Y-36066247D01*
X587610952Y-36066247D02*
X587563333Y-36256723D01*
X587563333Y-36256723D02*
X587515714Y-36351961D01*
X587515714Y-36351961D02*
X587420476Y-36447200D01*
X587420476Y-36447200D02*
X587277619Y-36494819D01*
X587277619Y-36494819D02*
X587039524Y-36494819D01*
X588563333Y-36494819D02*
X587991905Y-36494819D01*
X588277619Y-36494819D02*
X588277619Y-35494819D01*
X588277619Y-35494819D02*
X588182381Y-35637676D01*
X588182381Y-35637676D02*
X588087143Y-35732914D01*
X588087143Y-35732914D02*
X587991905Y-35780533D01*
X589515714Y-36494819D02*
X588944286Y-36494819D01*
X589230000Y-36494819D02*
X589230000Y-35494819D01*
X589230000Y-35494819D02*
X589134762Y-35637676D01*
X589134762Y-35637676D02*
X589039524Y-35732914D01*
X589039524Y-35732914D02*
X588944286Y-35780533D01*
X589849048Y-35494819D02*
X590468095Y-35494819D01*
X590468095Y-35494819D02*
X590134762Y-35875771D01*
X590134762Y-35875771D02*
X590277619Y-35875771D01*
X590277619Y-35875771D02*
X590372857Y-35923390D01*
X590372857Y-35923390D02*
X590420476Y-35971009D01*
X590420476Y-35971009D02*
X590468095Y-36066247D01*
X590468095Y-36066247D02*
X590468095Y-36304342D01*
X590468095Y-36304342D02*
X590420476Y-36399580D01*
X590420476Y-36399580D02*
X590372857Y-36447200D01*
X590372857Y-36447200D02*
X590277619Y-36494819D01*
X590277619Y-36494819D02*
X589991905Y-36494819D01*
X589991905Y-36494819D02*
X589896667Y-36447200D01*
X589896667Y-36447200D02*
X589849048Y-36399580D01*
X594039524Y-36494819D02*
X594039524Y-35494819D01*
X594039524Y-35494819D02*
X594277619Y-35494819D01*
X594277619Y-35494819D02*
X594420476Y-35542438D01*
X594420476Y-35542438D02*
X594515714Y-35637676D01*
X594515714Y-35637676D02*
X594563333Y-35732914D01*
X594563333Y-35732914D02*
X594610952Y-35923390D01*
X594610952Y-35923390D02*
X594610952Y-36066247D01*
X594610952Y-36066247D02*
X594563333Y-36256723D01*
X594563333Y-36256723D02*
X594515714Y-36351961D01*
X594515714Y-36351961D02*
X594420476Y-36447200D01*
X594420476Y-36447200D02*
X594277619Y-36494819D01*
X594277619Y-36494819D02*
X594039524Y-36494819D01*
X595563333Y-36494819D02*
X594991905Y-36494819D01*
X595277619Y-36494819D02*
X595277619Y-35494819D01*
X595277619Y-35494819D02*
X595182381Y-35637676D01*
X595182381Y-35637676D02*
X595087143Y-35732914D01*
X595087143Y-35732914D02*
X594991905Y-35780533D01*
X596515714Y-36494819D02*
X595944286Y-36494819D01*
X596230000Y-36494819D02*
X596230000Y-35494819D01*
X596230000Y-35494819D02*
X596134762Y-35637676D01*
X596134762Y-35637676D02*
X596039524Y-35732914D01*
X596039524Y-35732914D02*
X595944286Y-35780533D01*
X596896667Y-35590057D02*
X596944286Y-35542438D01*
X596944286Y-35542438D02*
X597039524Y-35494819D01*
X597039524Y-35494819D02*
X597277619Y-35494819D01*
X597277619Y-35494819D02*
X597372857Y-35542438D01*
X597372857Y-35542438D02*
X597420476Y-35590057D01*
X597420476Y-35590057D02*
X597468095Y-35685295D01*
X597468095Y-35685295D02*
X597468095Y-35780533D01*
X597468095Y-35780533D02*
X597420476Y-35923390D01*
X597420476Y-35923390D02*
X596849048Y-36494819D01*
X596849048Y-36494819D02*
X597468095Y-36494819D01*
X601039524Y-36494819D02*
X601039524Y-35494819D01*
X601039524Y-35494819D02*
X601277619Y-35494819D01*
X601277619Y-35494819D02*
X601420476Y-35542438D01*
X601420476Y-35542438D02*
X601515714Y-35637676D01*
X601515714Y-35637676D02*
X601563333Y-35732914D01*
X601563333Y-35732914D02*
X601610952Y-35923390D01*
X601610952Y-35923390D02*
X601610952Y-36066247D01*
X601610952Y-36066247D02*
X601563333Y-36256723D01*
X601563333Y-36256723D02*
X601515714Y-36351961D01*
X601515714Y-36351961D02*
X601420476Y-36447200D01*
X601420476Y-36447200D02*
X601277619Y-36494819D01*
X601277619Y-36494819D02*
X601039524Y-36494819D01*
X602563333Y-36494819D02*
X601991905Y-36494819D01*
X602277619Y-36494819D02*
X602277619Y-35494819D01*
X602277619Y-35494819D02*
X602182381Y-35637676D01*
X602182381Y-35637676D02*
X602087143Y-35732914D01*
X602087143Y-35732914D02*
X601991905Y-35780533D01*
X603515714Y-36494819D02*
X602944286Y-36494819D01*
X603230000Y-36494819D02*
X603230000Y-35494819D01*
X603230000Y-35494819D02*
X603134762Y-35637676D01*
X603134762Y-35637676D02*
X603039524Y-35732914D01*
X603039524Y-35732914D02*
X602944286Y-35780533D01*
X604468095Y-36494819D02*
X603896667Y-36494819D01*
X604182381Y-36494819D02*
X604182381Y-35494819D01*
X604182381Y-35494819D02*
X604087143Y-35637676D01*
X604087143Y-35637676D02*
X603991905Y-35732914D01*
X603991905Y-35732914D02*
X603896667Y-35780533D01*
X591000595Y-69654819D02*
X591000595Y-70464342D01*
X591000595Y-70464342D02*
X591048214Y-70559580D01*
X591048214Y-70559580D02*
X591095833Y-70607200D01*
X591095833Y-70607200D02*
X591191071Y-70654819D01*
X591191071Y-70654819D02*
X591381547Y-70654819D01*
X591381547Y-70654819D02*
X591476785Y-70607200D01*
X591476785Y-70607200D02*
X591524404Y-70559580D01*
X591524404Y-70559580D02*
X591572023Y-70464342D01*
X591572023Y-70464342D02*
X591572023Y-69654819D01*
X592572023Y-70654819D02*
X592000595Y-70654819D01*
X592286309Y-70654819D02*
X592286309Y-69654819D01*
X592286309Y-69654819D02*
X592191071Y-69797676D01*
X592191071Y-69797676D02*
X592095833Y-69892914D01*
X592095833Y-69892914D02*
X592000595Y-69940533D01*
X439666667Y-129457200D02*
X439809524Y-129504819D01*
X439809524Y-129504819D02*
X440047619Y-129504819D01*
X440047619Y-129504819D02*
X440142857Y-129457200D01*
X440142857Y-129457200D02*
X440190476Y-129409580D01*
X440190476Y-129409580D02*
X440238095Y-129314342D01*
X440238095Y-129314342D02*
X440238095Y-129219104D01*
X440238095Y-129219104D02*
X440190476Y-129123866D01*
X440190476Y-129123866D02*
X440142857Y-129076247D01*
X440142857Y-129076247D02*
X440047619Y-129028628D01*
X440047619Y-129028628D02*
X439857143Y-128981009D01*
X439857143Y-128981009D02*
X439761905Y-128933390D01*
X439761905Y-128933390D02*
X439714286Y-128885771D01*
X439714286Y-128885771D02*
X439666667Y-128790533D01*
X439666667Y-128790533D02*
X439666667Y-128695295D01*
X439666667Y-128695295D02*
X439714286Y-128600057D01*
X439714286Y-128600057D02*
X439761905Y-128552438D01*
X439761905Y-128552438D02*
X439857143Y-128504819D01*
X439857143Y-128504819D02*
X440095238Y-128504819D01*
X440095238Y-128504819D02*
X440238095Y-128552438D01*
X440571429Y-128504819D02*
X440809524Y-129504819D01*
X440809524Y-129504819D02*
X441000000Y-128790533D01*
X441000000Y-128790533D02*
X441190476Y-129504819D01*
X441190476Y-129504819D02*
X441428572Y-128504819D01*
X442333333Y-129504819D02*
X441761905Y-129504819D01*
X442047619Y-129504819D02*
X442047619Y-128504819D01*
X442047619Y-128504819D02*
X441952381Y-128647676D01*
X441952381Y-128647676D02*
X441857143Y-128742914D01*
X441857143Y-128742914D02*
X441761905Y-128790533D01*
X629075950Y-71483332D02*
X629123569Y-71340475D01*
X629123569Y-71340475D02*
X629123569Y-71102380D01*
X629123569Y-71102380D02*
X629075950Y-71007142D01*
X629075950Y-71007142D02*
X629028330Y-70959523D01*
X629028330Y-70959523D02*
X628933092Y-70911904D01*
X628933092Y-70911904D02*
X628837854Y-70911904D01*
X628837854Y-70911904D02*
X628742616Y-70959523D01*
X628742616Y-70959523D02*
X628694997Y-71007142D01*
X628694997Y-71007142D02*
X628647378Y-71102380D01*
X628647378Y-71102380D02*
X628599759Y-71292856D01*
X628599759Y-71292856D02*
X628552140Y-71388094D01*
X628552140Y-71388094D02*
X628504521Y-71435713D01*
X628504521Y-71435713D02*
X628409283Y-71483332D01*
X628409283Y-71483332D02*
X628314045Y-71483332D01*
X628314045Y-71483332D02*
X628218807Y-71435713D01*
X628218807Y-71435713D02*
X628171188Y-71388094D01*
X628171188Y-71388094D02*
X628123569Y-71292856D01*
X628123569Y-71292856D02*
X628123569Y-71054761D01*
X628123569Y-71054761D02*
X628171188Y-70911904D01*
X628123569Y-70578570D02*
X629123569Y-70340475D01*
X629123569Y-70340475D02*
X628409283Y-70149999D01*
X628409283Y-70149999D02*
X629123569Y-69959523D01*
X629123569Y-69959523D02*
X628123569Y-69721428D01*
X628218807Y-69388094D02*
X628171188Y-69340475D01*
X628171188Y-69340475D02*
X628123569Y-69245237D01*
X628123569Y-69245237D02*
X628123569Y-69007142D01*
X628123569Y-69007142D02*
X628171188Y-68911904D01*
X628171188Y-68911904D02*
X628218807Y-68864285D01*
X628218807Y-68864285D02*
X628314045Y-68816666D01*
X628314045Y-68816666D02*
X628409283Y-68816666D01*
X628409283Y-68816666D02*
X628552140Y-68864285D01*
X628552140Y-68864285D02*
X629123569Y-69435713D01*
X629123569Y-69435713D02*
X629123569Y-68816666D01*
X440223569Y-94699404D02*
X441033092Y-94699404D01*
X441033092Y-94699404D02*
X441128330Y-94651785D01*
X441128330Y-94651785D02*
X441175950Y-94604166D01*
X441175950Y-94604166D02*
X441223569Y-94508928D01*
X441223569Y-94508928D02*
X441223569Y-94318452D01*
X441223569Y-94318452D02*
X441175950Y-94223214D01*
X441175950Y-94223214D02*
X441128330Y-94175595D01*
X441128330Y-94175595D02*
X441033092Y-94127976D01*
X441033092Y-94127976D02*
X440223569Y-94127976D01*
X440223569Y-93747023D02*
X440223569Y-93127976D01*
X440223569Y-93127976D02*
X440604521Y-93461309D01*
X440604521Y-93461309D02*
X440604521Y-93318452D01*
X440604521Y-93318452D02*
X440652140Y-93223214D01*
X440652140Y-93223214D02*
X440699759Y-93175595D01*
X440699759Y-93175595D02*
X440794997Y-93127976D01*
X440794997Y-93127976D02*
X441033092Y-93127976D01*
X441033092Y-93127976D02*
X441128330Y-93175595D01*
X441128330Y-93175595D02*
X441175950Y-93223214D01*
X441175950Y-93223214D02*
X441223569Y-93318452D01*
X441223569Y-93318452D02*
X441223569Y-93604166D01*
X441223569Y-93604166D02*
X441175950Y-93699404D01*
X441175950Y-93699404D02*
X441128330Y-93747023D01*
X455238095Y-159504819D02*
X455238095Y-158504819D01*
X455238095Y-158981009D02*
X455809523Y-158981009D01*
X455809523Y-159504819D02*
X455809523Y-158504819D01*
X456190476Y-158504819D02*
X456857142Y-158504819D01*
X456857142Y-158504819D02*
X456428571Y-159504819D01*
X630238095Y-133504819D02*
X630238095Y-132504819D01*
X630238095Y-132981009D02*
X630809523Y-132981009D01*
X630809523Y-133504819D02*
X630809523Y-132504819D01*
X631190476Y-132504819D02*
X631809523Y-132504819D01*
X631809523Y-132504819D02*
X631476190Y-132885771D01*
X631476190Y-132885771D02*
X631619047Y-132885771D01*
X631619047Y-132885771D02*
X631714285Y-132933390D01*
X631714285Y-132933390D02*
X631761904Y-132981009D01*
X631761904Y-132981009D02*
X631809523Y-133076247D01*
X631809523Y-133076247D02*
X631809523Y-133314342D01*
X631809523Y-133314342D02*
X631761904Y-133409580D01*
X631761904Y-133409580D02*
X631714285Y-133457200D01*
X631714285Y-133457200D02*
X631619047Y-133504819D01*
X631619047Y-133504819D02*
X631333333Y-133504819D01*
X631333333Y-133504819D02*
X631238095Y-133457200D01*
X631238095Y-133457200D02*
X631190476Y-133409580D01*
X46238095Y-159504819D02*
X46238095Y-158504819D01*
X46238095Y-158981009D02*
X46809523Y-158981009D01*
X46809523Y-159504819D02*
X46809523Y-158504819D01*
X47428571Y-158933390D02*
X47333333Y-158885771D01*
X47333333Y-158885771D02*
X47285714Y-158838152D01*
X47285714Y-158838152D02*
X47238095Y-158742914D01*
X47238095Y-158742914D02*
X47238095Y-158695295D01*
X47238095Y-158695295D02*
X47285714Y-158600057D01*
X47285714Y-158600057D02*
X47333333Y-158552438D01*
X47333333Y-158552438D02*
X47428571Y-158504819D01*
X47428571Y-158504819D02*
X47619047Y-158504819D01*
X47619047Y-158504819D02*
X47714285Y-158552438D01*
X47714285Y-158552438D02*
X47761904Y-158600057D01*
X47761904Y-158600057D02*
X47809523Y-158695295D01*
X47809523Y-158695295D02*
X47809523Y-158742914D01*
X47809523Y-158742914D02*
X47761904Y-158838152D01*
X47761904Y-158838152D02*
X47714285Y-158885771D01*
X47714285Y-158885771D02*
X47619047Y-158933390D01*
X47619047Y-158933390D02*
X47428571Y-158933390D01*
X47428571Y-158933390D02*
X47333333Y-158981009D01*
X47333333Y-158981009D02*
X47285714Y-159028628D01*
X47285714Y-159028628D02*
X47238095Y-159123866D01*
X47238095Y-159123866D02*
X47238095Y-159314342D01*
X47238095Y-159314342D02*
X47285714Y-159409580D01*
X47285714Y-159409580D02*
X47333333Y-159457200D01*
X47333333Y-159457200D02*
X47428571Y-159504819D01*
X47428571Y-159504819D02*
X47619047Y-159504819D01*
X47619047Y-159504819D02*
X47714285Y-159457200D01*
X47714285Y-159457200D02*
X47761904Y-159409580D01*
X47761904Y-159409580D02*
X47809523Y-159314342D01*
X47809523Y-159314342D02*
X47809523Y-159123866D01*
X47809523Y-159123866D02*
X47761904Y-159028628D01*
X47761904Y-159028628D02*
X47714285Y-158981009D01*
X47714285Y-158981009D02*
X47619047Y-158933390D01*
X46238095Y-31504819D02*
X46238095Y-30504819D01*
X46238095Y-30981009D02*
X46809523Y-30981009D01*
X46809523Y-31504819D02*
X46809523Y-30504819D01*
X47761904Y-30504819D02*
X47285714Y-30504819D01*
X47285714Y-30504819D02*
X47238095Y-30981009D01*
X47238095Y-30981009D02*
X47285714Y-30933390D01*
X47285714Y-30933390D02*
X47380952Y-30885771D01*
X47380952Y-30885771D02*
X47619047Y-30885771D01*
X47619047Y-30885771D02*
X47714285Y-30933390D01*
X47714285Y-30933390D02*
X47761904Y-30981009D01*
X47761904Y-30981009D02*
X47809523Y-31076247D01*
X47809523Y-31076247D02*
X47809523Y-31314342D01*
X47809523Y-31314342D02*
X47761904Y-31409580D01*
X47761904Y-31409580D02*
X47714285Y-31457200D01*
X47714285Y-31457200D02*
X47619047Y-31504819D01*
X47619047Y-31504819D02*
X47380952Y-31504819D01*
X47380952Y-31504819D02*
X47285714Y-31457200D01*
X47285714Y-31457200D02*
X47238095Y-31409580D01*
X630238095Y-31504819D02*
X630238095Y-30504819D01*
X630238095Y-30981009D02*
X630809523Y-30981009D01*
X630809523Y-31504819D02*
X630809523Y-30504819D01*
X631238095Y-30600057D02*
X631285714Y-30552438D01*
X631285714Y-30552438D02*
X631380952Y-30504819D01*
X631380952Y-30504819D02*
X631619047Y-30504819D01*
X631619047Y-30504819D02*
X631714285Y-30552438D01*
X631714285Y-30552438D02*
X631761904Y-30600057D01*
X631761904Y-30600057D02*
X631809523Y-30695295D01*
X631809523Y-30695295D02*
X631809523Y-30790533D01*
X631809523Y-30790533D02*
X631761904Y-30933390D01*
X631761904Y-30933390D02*
X631190476Y-31504819D01*
X631190476Y-31504819D02*
X631809523Y-31504819D01*
X475238095Y-133504819D02*
X475238095Y-132504819D01*
X475238095Y-132981009D02*
X475809523Y-132981009D01*
X475809523Y-133504819D02*
X475809523Y-132504819D01*
X476714285Y-132838152D02*
X476714285Y-133504819D01*
X476476190Y-132457200D02*
X476238095Y-133171485D01*
X476238095Y-133171485D02*
X476857142Y-133171485D01*
X475238095Y-31504819D02*
X475238095Y-30504819D01*
X475238095Y-30981009D02*
X475809523Y-30981009D01*
X475809523Y-31504819D02*
X475809523Y-30504819D01*
X476809523Y-31504819D02*
X476238095Y-31504819D01*
X476523809Y-31504819D02*
X476523809Y-30504819D01*
X476523809Y-30504819D02*
X476428571Y-30647676D01*
X476428571Y-30647676D02*
X476333333Y-30742914D01*
X476333333Y-30742914D02*
X476238095Y-30790533D01*
X455238095Y-31504819D02*
X455238095Y-30504819D01*
X455238095Y-30981009D02*
X455809523Y-30981009D01*
X455809523Y-31504819D02*
X455809523Y-30504819D01*
X456714285Y-30504819D02*
X456523809Y-30504819D01*
X456523809Y-30504819D02*
X456428571Y-30552438D01*
X456428571Y-30552438D02*
X456380952Y-30600057D01*
X456380952Y-30600057D02*
X456285714Y-30742914D01*
X456285714Y-30742914D02*
X456238095Y-30933390D01*
X456238095Y-30933390D02*
X456238095Y-31314342D01*
X456238095Y-31314342D02*
X456285714Y-31409580D01*
X456285714Y-31409580D02*
X456333333Y-31457200D01*
X456333333Y-31457200D02*
X456428571Y-31504819D01*
X456428571Y-31504819D02*
X456619047Y-31504819D01*
X456619047Y-31504819D02*
X456714285Y-31457200D01*
X456714285Y-31457200D02*
X456761904Y-31409580D01*
X456761904Y-31409580D02*
X456809523Y-31314342D01*
X456809523Y-31314342D02*
X456809523Y-31076247D01*
X456809523Y-31076247D02*
X456761904Y-30981009D01*
X456761904Y-30981009D02*
X456714285Y-30933390D01*
X456714285Y-30933390D02*
X456619047Y-30885771D01*
X456619047Y-30885771D02*
X456428571Y-30885771D01*
X456428571Y-30885771D02*
X456333333Y-30933390D01*
X456333333Y-30933390D02*
X456285714Y-30981009D01*
X456285714Y-30981009D02*
X456238095Y-31076247D01*
%TO.C,R3*%
X589200000Y-54000000D02*
X589200000Y-50000000D01*
X589200000Y-50000000D02*
X589000000Y-49800000D01*
X589000000Y-49800000D02*
X589000000Y-49400000D01*
X589000000Y-49400000D02*
X589200000Y-49200000D01*
X589200000Y-49200000D02*
X590000000Y-49000000D01*
X590000000Y-49000000D02*
X590800000Y-49200000D01*
X590800000Y-49200000D02*
X591000000Y-49400000D01*
X591000000Y-49400000D02*
X591000000Y-49800000D01*
X591000000Y-49800000D02*
X590800000Y-50000000D01*
X590800000Y-50000000D02*
X590800000Y-54000000D01*
X590800000Y-54000000D02*
X591000000Y-54200000D01*
X591000000Y-54200000D02*
X591000000Y-54600000D01*
X591000000Y-54600000D02*
X590800000Y-54800000D01*
X590800000Y-54800000D02*
X590000000Y-55000000D01*
X590000000Y-55000000D02*
X589200000Y-54800000D01*
X589200000Y-54800000D02*
X589000000Y-54600000D01*
X589000000Y-54600000D02*
X589000000Y-54200000D01*
X589000000Y-54200000D02*
X589200000Y-54000000D01*
X590000000Y-56200000D02*
X590000000Y-55000000D01*
X590000000Y-49000000D02*
X590000000Y-47800000D01*
%TO.C,R2*%
X597000000Y-47000000D02*
X597000000Y-45800000D01*
X597000000Y-54200000D02*
X597000000Y-53000000D01*
X596000000Y-52200000D02*
X596200000Y-52000000D01*
X596000000Y-52600000D02*
X596000000Y-52200000D01*
X596200000Y-52800000D02*
X596000000Y-52600000D01*
X597000000Y-53000000D02*
X596200000Y-52800000D01*
X597800000Y-52800000D02*
X597000000Y-53000000D01*
X598000000Y-52600000D02*
X597800000Y-52800000D01*
X598000000Y-52200000D02*
X598000000Y-52600000D01*
X597800000Y-52000000D02*
X598000000Y-52200000D01*
X597800000Y-48000000D02*
X597800000Y-52000000D01*
X598000000Y-47800000D02*
X597800000Y-48000000D01*
X598000000Y-47400000D02*
X598000000Y-47800000D01*
X597800000Y-47200000D02*
X598000000Y-47400000D01*
X597000000Y-47000000D02*
X597800000Y-47200000D01*
X596200000Y-47200000D02*
X597000000Y-47000000D01*
X596000000Y-47400000D02*
X596200000Y-47200000D01*
X596000000Y-47800000D02*
X596000000Y-47400000D01*
X596200000Y-48000000D02*
X596000000Y-47800000D01*
X596200000Y-52000000D02*
X596200000Y-48000000D01*
%TO.C,R1*%
X604000000Y-46000000D02*
X604000000Y-44800000D01*
X604000000Y-53200000D02*
X604000000Y-52000000D01*
X603000000Y-51200000D02*
X603200000Y-51000000D01*
X603000000Y-51600000D02*
X603000000Y-51200000D01*
X603200000Y-51800000D02*
X603000000Y-51600000D01*
X604000000Y-52000000D02*
X603200000Y-51800000D01*
X604800000Y-51800000D02*
X604000000Y-52000000D01*
X605000000Y-51600000D02*
X604800000Y-51800000D01*
X605000000Y-51200000D02*
X605000000Y-51600000D01*
X604800000Y-51000000D02*
X605000000Y-51200000D01*
X604800000Y-47000000D02*
X604800000Y-51000000D01*
X605000000Y-46800000D02*
X604800000Y-47000000D01*
X605000000Y-46400000D02*
X605000000Y-46800000D01*
X604800000Y-46200000D02*
X605000000Y-46400000D01*
X604000000Y-46000000D02*
X604800000Y-46200000D01*
X603200000Y-46200000D02*
X604000000Y-46000000D01*
X603000000Y-46400000D02*
X603200000Y-46200000D01*
X603000000Y-46800000D02*
X603000000Y-46400000D01*
X603200000Y-47000000D02*
X603000000Y-46800000D01*
X603200000Y-51000000D02*
X603200000Y-47000000D01*
D12*
%TO.C,D113*%
X586170000Y-38455000D02*
X586170000Y-41545000D01*
X586170000Y-38455170D02*
G75*
G02*
X591720000Y-40000000I2560000J-1544830D01*
G01*
X591720000Y-40000000D02*
G75*
G02*
X586170000Y-41544830I-2990000J0D01*
G01*
X591230000Y-40000000D02*
G75*
G02*
X586230000Y-40000000I-2500000J0D01*
G01*
X586230000Y-40000000D02*
G75*
G02*
X591230000Y-40000000I2500000J0D01*
G01*
%TO.C,D112*%
X593170000Y-38455000D02*
X593170000Y-41545000D01*
X593170000Y-38455170D02*
G75*
G02*
X598720000Y-40000000I2560000J-1544830D01*
G01*
X598720000Y-40000000D02*
G75*
G02*
X593170000Y-41544830I-2990000J0D01*
G01*
X598230000Y-40000000D02*
G75*
G02*
X593230000Y-40000000I-2500000J0D01*
G01*
X593230000Y-40000000D02*
G75*
G02*
X598230000Y-40000000I2500000J0D01*
G01*
%TO.C,D111*%
X600170000Y-38455000D02*
X600170000Y-41545000D01*
X600170000Y-38455170D02*
G75*
G02*
X605720000Y-40000000I2560000J-1544830D01*
G01*
X605720000Y-40000000D02*
G75*
G02*
X600170000Y-41544830I-2990000J0D01*
G01*
X605230000Y-40000000D02*
G75*
G02*
X600230000Y-40000000I-2500000J0D01*
G01*
X600230000Y-40000000D02*
G75*
G02*
X605230000Y-40000000I2500000J0D01*
G01*
%TO.C,SW1*%
X437770000Y-121770000D02*
X437770000Y-121800000D01*
X437770000Y-126300000D02*
X437770000Y-123700000D01*
X437770000Y-128230000D02*
X437770000Y-128200000D01*
X444230000Y-121770000D02*
X437770000Y-121770000D01*
X444230000Y-121770000D02*
X444230000Y-121800000D01*
X444230000Y-126300000D02*
X444230000Y-123700000D01*
X444230000Y-128200000D02*
X444230000Y-128230000D01*
X444230000Y-128230000D02*
X437770000Y-128230000D01*
%TO.C,SW2*%
X627848750Y-66920000D02*
X627848750Y-73380000D01*
X627818750Y-66920000D02*
X627848750Y-66920000D01*
X625918750Y-66920000D02*
X623318750Y-66920000D01*
X621388750Y-66920000D02*
X621418750Y-66920000D01*
X621388750Y-66920000D02*
X621388750Y-73380000D01*
X627848750Y-73380000D02*
X627818750Y-73380000D01*
X625918750Y-73380000D02*
X623318750Y-73380000D01*
X621388750Y-73380000D02*
X621418750Y-73380000D01*
D11*
%TO.C,U4*%
X612568750Y-28887500D02*
X612568750Y-40987500D01*
X612818750Y-28887500D02*
X612818750Y-26887500D01*
X618418750Y-26887500D02*
X612818750Y-26887500D01*
X618418750Y-28887500D02*
X618418750Y-26887500D01*
X618668750Y-28887500D02*
X612568750Y-28887500D01*
X618668750Y-28887500D02*
X618668750Y-40987500D01*
X618668750Y-40987500D02*
X612568750Y-40987500D01*
%TO.C,U2*%
X75718750Y-29318750D02*
X75718750Y-41418750D01*
X75968750Y-29318750D02*
X75968750Y-27318750D01*
X81568750Y-27318750D02*
X75968750Y-27318750D01*
X81568750Y-29318750D02*
X81568750Y-27318750D01*
X81818750Y-29318750D02*
X75718750Y-29318750D01*
X81818750Y-29318750D02*
X81818750Y-41418750D01*
X81818750Y-41418750D02*
X75718750Y-41418750D01*
%TD*%
D13*
%TO.C,R3*%
X590000000Y-46920000D03*
X590000000Y-57080000D03*
%TD*%
%TO.C,R2*%
X597000000Y-55080000D03*
X597000000Y-44920000D03*
%TD*%
%TO.C,R1*%
X604000000Y-54080000D03*
X604000000Y-43920000D03*
%TD*%
M02*
