%TF.GenerationSoftware,KiCad,Pcbnew,9.0.4*%
%TF.CreationDate,2026-04-07T21:12:45-07:00*%
%TF.ProjectId,theBoerd,74686542-6f65-4726-942e-6b696361645f,rev?*%
%TF.SameCoordinates,Original*%
%TF.FileFunction,Soldermask,Bot*%
%TF.FilePolarity,Negative*%
%FSLAX46Y46*%
G04 Gerber Fmt 4.6, Leading zero omitted, Abs format (unit mm)*
G04 Created by KiCad (PCBNEW 9.0.4) date 2026-04-07 21:12:45*
%MOMM*%
%LPD*%
G01*
G04 APERTURE LIST*
G04 Aperture macros list*
%AMRoundRect*
0 Rectangle with rounded corners*
0 $1 Rounding radius*
0 $2 $3 $4 $5 $6 $7 $8 $9 X,Y pos of 4 corners*
0 Add a 4 corners polygon primitive as box body*
4,1,4,$2,$3,$4,$5,$6,$7,$8,$9,$2,$3,0*
0 Add four circle primitives for the rounded corners*
1,1,$1+$1,$2,$3*
1,1,$1+$1,$4,$5*
1,1,$1+$1,$6,$7*
1,1,$1+$1,$8,$9*
0 Add four rect primitives between the rounded corners*
20,1,$1+$1,$2,$3,$4,$5,0*
20,1,$1+$1,$4,$5,$6,$7,0*
20,1,$1+$1,$6,$7,$8,$9,0*
20,1,$1+$1,$8,$9,$2,$3,0*%
G04 Aperture macros list end*
%ADD10O,1.512000X2.820000*%
%ADD11O,2.820000X1.512000*%
%ADD12C,1.200000*%
%ADD13C,2.082800*%
%ADD14RoundRect,0.101600X0.939800X-0.939800X0.939800X0.939800X-0.939800X0.939800X-0.939800X-0.939800X0*%
%ADD15C,0.500000*%
%ADD16C,8.000000*%
%ADD17RoundRect,0.101600X-0.939800X-0.939800X0.939800X-0.939800X0.939800X0.939800X-0.939800X0.939800X0*%
%ADD18C,1.651000*%
%ADD19R,1.800000X1.800000*%
%ADD20C,1.800000*%
%ADD21C,3.987800*%
%ADD22C,3.048000*%
%ADD23C,1.701800*%
%ADD24C,3.000000*%
%ADD25RoundRect,0.200000X1.075000X1.050000X-1.075000X1.050000X-1.075000X-1.050000X1.075000X-1.050000X0*%
%ADD26RoundRect,0.250000X1.075000X-0.375000X1.075000X0.375000X-1.075000X0.375000X-1.075000X-0.375000X0*%
G04 APERTURE END LIST*
D10*
%TO.C,U4*%
X611200000Y-30500000D03*
X617800000Y-30500000D03*
X611650000Y-38500000D03*
X617350000Y-38500000D03*
D11*
X614500000Y-39300000D03*
D12*
X614500000Y-29000000D03*
X614500000Y-36000000D03*
%TD*%
%TO.C,U2*%
X79000000Y-36000000D03*
X79000000Y-29000000D03*
D11*
X79000000Y-39300000D03*
D10*
X81850000Y-38500000D03*
X76150000Y-38500000D03*
X82300000Y-30500000D03*
X75700000Y-30500000D03*
%TD*%
D13*
%TO.C,U3*%
X433225750Y-68862500D03*
X432971750Y-71402500D03*
X433225750Y-73942500D03*
X432971750Y-76482500D03*
X433225750Y-79022500D03*
X432971750Y-81562500D03*
X433225750Y-84102500D03*
X432971750Y-86642500D03*
X433225750Y-89182500D03*
X432971750Y-91722500D03*
X433225750Y-94262500D03*
X432971750Y-96802500D03*
X433225750Y-99342500D03*
X432971750Y-101882500D03*
X433225750Y-104422500D03*
X432971750Y-106962500D03*
X433225750Y-109502500D03*
X432971750Y-112042500D03*
X433225750Y-114582500D03*
X432971750Y-117122500D03*
X448465750Y-117122500D03*
X448211750Y-114582500D03*
X448465750Y-112042500D03*
X448211750Y-109502500D03*
X448465750Y-106962500D03*
X448211750Y-104422500D03*
X448465750Y-101882500D03*
X448211750Y-99342500D03*
X448465750Y-96802500D03*
X448211750Y-94262500D03*
X448465750Y-91722500D03*
X448211750Y-89182500D03*
X448465750Y-86642500D03*
X448211750Y-84102500D03*
X448465750Y-81562500D03*
X448211750Y-79022500D03*
X448465750Y-76482500D03*
X448211750Y-73942500D03*
X448465750Y-71402500D03*
X448211750Y-68862500D03*
D14*
X436908750Y-113139500D03*
D13*
X439448750Y-112885500D03*
X441988750Y-113139500D03*
X444528750Y-112885500D03*
%TD*%
D15*
%TO.C,REF\u002A\u002A*%
X37750000Y-102550000D03*
X37750000Y-101700000D03*
X37750000Y-100850000D03*
X37750000Y-100000000D03*
X37750000Y-99150000D03*
X37750000Y-98300000D03*
X37750000Y-97450000D03*
%TD*%
D16*
%TO.C,H7*%
X456000000Y-164000000D03*
%TD*%
%TO.C,H3*%
X631000000Y-138000000D03*
%TD*%
%TO.C,H8*%
X47000000Y-164000000D03*
%TD*%
D15*
%TO.C,REF\u002A\u002A*%
X37750000Y-42550000D03*
X37750000Y-41700000D03*
X37750000Y-40850000D03*
X37750000Y-40000000D03*
X37750000Y-39150000D03*
X37750000Y-38300000D03*
X37750000Y-37450000D03*
%TD*%
%TO.C,REF\u002A\u002A*%
X640250000Y-84450000D03*
X640250000Y-85300000D03*
X640250000Y-86150000D03*
X640250000Y-87000000D03*
X640250000Y-87850000D03*
X640250000Y-88700000D03*
X640250000Y-89550000D03*
%TD*%
%TO.C,REF\u002A\u002A*%
X38000000Y-179200000D03*
X38000000Y-178350000D03*
X38000000Y-177500000D03*
X38000000Y-176650000D03*
X38000000Y-175800000D03*
%TD*%
D13*
%TO.C,U1*%
X616837500Y-62657000D03*
X614297500Y-62403000D03*
X611757500Y-62657000D03*
X609217500Y-62403000D03*
X606677500Y-62657000D03*
X604137500Y-62403000D03*
X601597500Y-62657000D03*
X599057500Y-62403000D03*
X596517500Y-62657000D03*
X593977500Y-62403000D03*
X591437500Y-62657000D03*
X588897500Y-62403000D03*
X586357500Y-62657000D03*
X583817500Y-62403000D03*
X581277500Y-62657000D03*
X578737500Y-62403000D03*
X576197500Y-62657000D03*
X573657500Y-62403000D03*
X571117500Y-62657000D03*
X568577500Y-62403000D03*
X568577500Y-77897000D03*
X571117500Y-77643000D03*
X573657500Y-77897000D03*
X576197500Y-77643000D03*
X578737500Y-77897000D03*
X581277500Y-77643000D03*
X583817500Y-77897000D03*
X586357500Y-77643000D03*
X588897500Y-77897000D03*
X591437500Y-77643000D03*
X593977500Y-77897000D03*
X596517500Y-77643000D03*
X599057500Y-77897000D03*
X601597500Y-77643000D03*
X604137500Y-77897000D03*
X606677500Y-77643000D03*
X609217500Y-77897000D03*
X611757500Y-77643000D03*
X614297500Y-77897000D03*
X616837500Y-77643000D03*
D17*
X572560500Y-66340000D03*
D13*
X572814500Y-68880000D03*
X572560500Y-71420000D03*
X572814500Y-73960000D03*
%TD*%
D15*
%TO.C,REF\u002A\u002A*%
X640000000Y-179200000D03*
X640000000Y-178350000D03*
X640000000Y-177500000D03*
X640000000Y-176650000D03*
X640000000Y-175800000D03*
%TD*%
%TO.C,REF\u002A\u002A*%
X37750000Y-162550000D03*
X37750000Y-161700000D03*
X37750000Y-160850000D03*
X37750000Y-160000000D03*
X37750000Y-159150000D03*
X37750000Y-158300000D03*
X37750000Y-157450000D03*
%TD*%
D18*
%TO.C,R2*%
X597000000Y-56080000D03*
X597000000Y-45920000D03*
%TD*%
D15*
%TO.C,REF\u002A\u002A*%
X640250000Y-37450000D03*
X640250000Y-38300000D03*
X640250000Y-39150000D03*
X640250000Y-40000000D03*
X640250000Y-40850000D03*
X640250000Y-41700000D03*
X640250000Y-42550000D03*
%TD*%
D16*
%TO.C,H5*%
X47000000Y-36000000D03*
%TD*%
D19*
%TO.C,D113*%
X587460000Y-40000000D03*
D20*
X590000000Y-40000000D03*
%TD*%
D15*
%TO.C,REF\u002A\u002A*%
X640000000Y-24200000D03*
X640000000Y-23350000D03*
X640000000Y-22500000D03*
X640000000Y-21650000D03*
X640000000Y-20800000D03*
%TD*%
D18*
%TO.C,R3*%
X590000000Y-57080000D03*
X590000000Y-46920000D03*
%TD*%
D15*
%TO.C,REF\u002A\u002A*%
X38000000Y-24200000D03*
X38000000Y-23350000D03*
X38000000Y-22500000D03*
X38000000Y-21650000D03*
X38000000Y-20800000D03*
%TD*%
%TO.C,REF\u002A\u002A*%
X465250000Y-42550000D03*
X466750000Y-42550000D03*
X465250000Y-41700000D03*
X466750000Y-41700000D03*
X465250000Y-40850000D03*
X466750000Y-40850000D03*
X465250000Y-40000000D03*
X466750000Y-40000000D03*
X465250000Y-39150000D03*
X466750000Y-39150000D03*
X465250000Y-38300000D03*
X466750000Y-38300000D03*
X465250000Y-37450000D03*
X466750000Y-37450000D03*
%TD*%
%TO.C,REF\u002A\u002A*%
X465250000Y-89550000D03*
X466750000Y-89550000D03*
X465250000Y-88700000D03*
X466750000Y-88700000D03*
X465250000Y-87850000D03*
X466750000Y-87850000D03*
X465250000Y-87000000D03*
X466750000Y-87000000D03*
X465250000Y-86150000D03*
X466750000Y-86150000D03*
X465250000Y-85300000D03*
X466750000Y-85300000D03*
X465250000Y-84450000D03*
X466750000Y-84450000D03*
%TD*%
D19*
%TO.C,D112*%
X594460000Y-40000000D03*
D20*
X597000000Y-40000000D03*
%TD*%
D19*
%TO.C,D111*%
X601460000Y-40000000D03*
D20*
X604000000Y-40000000D03*
%TD*%
D16*
%TO.C,H2*%
X631000000Y-36000000D03*
%TD*%
D15*
%TO.C,REF\u002A\u002A*%
X640250000Y-131450000D03*
X640250000Y-132300000D03*
X640250000Y-133150000D03*
X640250000Y-134000000D03*
X640250000Y-134850000D03*
X640250000Y-135700000D03*
X640250000Y-136550000D03*
%TD*%
D16*
%TO.C,H4*%
X476000000Y-138000000D03*
%TD*%
%TO.C,H1*%
X476000000Y-36000000D03*
%TD*%
%TO.C,H6*%
X456000000Y-36000000D03*
%TD*%
D18*
%TO.C,R1*%
X604000000Y-55080000D03*
X604000000Y-44920000D03*
%TD*%
D15*
%TO.C,REF\u002A\u002A*%
X465250000Y-136550000D03*
X466750000Y-136550000D03*
X465250000Y-135700000D03*
X466750000Y-135700000D03*
X465250000Y-134850000D03*
X466750000Y-134850000D03*
X465250000Y-134000000D03*
X466750000Y-134000000D03*
X465250000Y-133150000D03*
X466750000Y-133150000D03*
X465250000Y-132300000D03*
X466750000Y-132300000D03*
X465250000Y-131450000D03*
X466750000Y-131450000D03*
%TD*%
D21*
%TO.C,CH60*%
X326450500Y-121267500D03*
D22*
X326450500Y-106027500D03*
D23*
X319592500Y-113012500D03*
D24*
X317052500Y-107932500D03*
D21*
X314512500Y-113012500D03*
D24*
X310702500Y-110472500D03*
D23*
X309432500Y-113012500D03*
D21*
X302574500Y-121267500D03*
D22*
X302574500Y-106027500D03*
D25*
X307427500Y-110472500D03*
X320354500Y-107932500D03*
%TD*%
D23*
%TO.C,CH28*%
X274348750Y-74912500D03*
D24*
X271808750Y-69832500D03*
D21*
X269268750Y-74912500D03*
D24*
X265458750Y-72372500D03*
D23*
X264188750Y-74912500D03*
D25*
X262183750Y-72372500D03*
X275110750Y-69832500D03*
%TD*%
D26*
%TO.C,D56*%
X233550000Y-119175000D03*
X233550000Y-116375000D03*
%TD*%
%TO.C,D46*%
X405000000Y-100125000D03*
X405000000Y-97325000D03*
%TD*%
%TO.C,D6*%
X190687500Y-54881250D03*
X190687500Y-52081250D03*
%TD*%
D23*
%TO.C,CH79*%
X90992500Y-151112500D03*
D24*
X88452500Y-146032500D03*
D21*
X85912500Y-151112500D03*
D24*
X82102500Y-148572500D03*
D23*
X80832500Y-151112500D03*
D25*
X78827500Y-148572500D03*
X91754500Y-146032500D03*
%TD*%
D23*
%TO.C,CH50*%
X117186250Y-113012500D03*
D24*
X114646250Y-107932500D03*
D21*
X112106250Y-113012500D03*
D24*
X108296250Y-110472500D03*
D23*
X107026250Y-113012500D03*
D25*
X105021250Y-110472500D03*
X117948250Y-107932500D03*
%TD*%
D26*
%TO.C,D17*%
X66862500Y-81075000D03*
X66862500Y-78275000D03*
%TD*%
D23*
%TO.C,CH5*%
X160048750Y-48718750D03*
D24*
X157508750Y-43638750D03*
D21*
X154968750Y-48718750D03*
D24*
X151158750Y-46178750D03*
D23*
X149888750Y-48718750D03*
D25*
X147883750Y-46178750D03*
X160810750Y-43638750D03*
%TD*%
D23*
%TO.C,CH42*%
X283873750Y-93962500D03*
D24*
X281333750Y-88882500D03*
D21*
X278793750Y-93962500D03*
D24*
X274983750Y-91422500D03*
D23*
X273713750Y-93962500D03*
D25*
X271708750Y-91422500D03*
X284635750Y-88882500D03*
%TD*%
D26*
%TO.C,D2*%
X104962500Y-54881250D03*
X104962500Y-52081250D03*
%TD*%
%TO.C,D20*%
X124012500Y-81075000D03*
X124012500Y-78275000D03*
%TD*%
%TO.C,D29*%
X295462500Y-81075000D03*
X295462500Y-78275000D03*
%TD*%
D23*
%TO.C,CH18*%
X83848750Y-74912500D03*
D24*
X81308750Y-69832500D03*
D21*
X78768750Y-74912500D03*
D24*
X74958750Y-72372500D03*
D23*
X73688750Y-74912500D03*
D25*
X71683750Y-72372500D03*
X84610750Y-69832500D03*
%TD*%
D26*
%TO.C,D105*%
X534587500Y-131081250D03*
X534587500Y-128281250D03*
%TD*%
D23*
%TO.C,CH34*%
X131473750Y-93962500D03*
D24*
X128933750Y-88882500D03*
D21*
X126393750Y-93962500D03*
D24*
X122583750Y-91422500D03*
D23*
X121313750Y-93962500D03*
D25*
X119308750Y-91422500D03*
X132235750Y-88882500D03*
%TD*%
D26*
%TO.C,D66*%
X128775000Y-138225000D03*
X128775000Y-135425000D03*
%TD*%
D23*
%TO.C,CH26*%
X236248750Y-74912500D03*
D24*
X233708750Y-69832500D03*
D21*
X231168750Y-74912500D03*
D24*
X227358750Y-72372500D03*
D23*
X226088750Y-74912500D03*
D25*
X224083750Y-72372500D03*
X237010750Y-69832500D03*
%TD*%
D26*
%TO.C,D16*%
X424050000Y-54881250D03*
X424050000Y-52081250D03*
%TD*%
%TO.C,D82*%
X259743750Y-157275000D03*
X259743750Y-154475000D03*
%TD*%
%TO.C,D23*%
X181162500Y-81075000D03*
X181162500Y-78275000D03*
%TD*%
D23*
%TO.C,CH110*%
X580148750Y-124918750D03*
D24*
X577608750Y-119838750D03*
D21*
X575068750Y-124918750D03*
D24*
X571258750Y-122378750D03*
D23*
X569988750Y-124918750D03*
D25*
X567983750Y-122378750D03*
X580910750Y-119838750D03*
%TD*%
D23*
%TO.C,CH37*%
X188623750Y-93962500D03*
D24*
X186083750Y-88882500D03*
D21*
X183543750Y-93962500D03*
D24*
X179733750Y-91422500D03*
D23*
X178463750Y-93962500D03*
D25*
X176458750Y-91422500D03*
X189385750Y-88882500D03*
%TD*%
D26*
%TO.C,D87*%
X395475000Y-157275000D03*
X395475000Y-154475000D03*
%TD*%
D23*
%TO.C,CH12*%
X312448750Y-48718750D03*
D24*
X309908750Y-43638750D03*
D21*
X307368750Y-48718750D03*
D24*
X303558750Y-46178750D03*
D23*
X302288750Y-48718750D03*
D25*
X300283750Y-46178750D03*
X313210750Y-43638750D03*
%TD*%
D26*
%TO.C,D92*%
X496487500Y-73931250D03*
X496487500Y-71131250D03*
%TD*%
%TO.C,D61*%
X385950000Y-119175000D03*
X385950000Y-116375000D03*
%TD*%
D23*
%TO.C,CH36*%
X169573750Y-93962500D03*
D24*
X167033750Y-88882500D03*
D21*
X164493750Y-93962500D03*
D24*
X160683750Y-91422500D03*
D23*
X159413750Y-93962500D03*
D25*
X157408750Y-91422500D03*
X170335750Y-88882500D03*
%TD*%
D26*
%TO.C,D86*%
X376425000Y-157275000D03*
X376425000Y-154475000D03*
%TD*%
%TO.C,D72*%
X243075000Y-138225000D03*
X243075000Y-135425000D03*
%TD*%
%TO.C,D55*%
X214500000Y-119175000D03*
X214500000Y-116375000D03*
%TD*%
D23*
%TO.C,CH6*%
X188623750Y-48718750D03*
D24*
X186083750Y-43638750D03*
D21*
X183543750Y-48718750D03*
D24*
X179733750Y-46178750D03*
D23*
X178463750Y-48718750D03*
D25*
X176458750Y-46178750D03*
X189385750Y-43638750D03*
%TD*%
D26*
%TO.C,D43*%
X304987500Y-100125000D03*
X304987500Y-97325000D03*
%TD*%
D23*
%TO.C,CH44*%
X326736250Y-93962500D03*
D24*
X324196250Y-88882500D03*
D21*
X321656250Y-93962500D03*
D24*
X317846250Y-91422500D03*
D23*
X316576250Y-93962500D03*
D25*
X314571250Y-91422500D03*
X327498250Y-88882500D03*
%TD*%
D23*
%TO.C,CH39*%
X226723750Y-93962500D03*
D24*
X224183750Y-88882500D03*
D21*
X221643750Y-93962500D03*
D24*
X217833750Y-91422500D03*
D23*
X216563750Y-93962500D03*
D25*
X214558750Y-91422500D03*
X227485750Y-88882500D03*
%TD*%
D26*
%TO.C,D75*%
X316893750Y-138225000D03*
X316893750Y-135425000D03*
%TD*%
D23*
%TO.C,CH84*%
X305305000Y-151112500D03*
D24*
X302765000Y-146032500D03*
D21*
X300225000Y-151112500D03*
D24*
X296415000Y-148572500D03*
D23*
X295145000Y-151112500D03*
D25*
X293140000Y-148572500D03*
X306067000Y-146032500D03*
%TD*%
D26*
%TO.C,D7*%
X209737500Y-54881250D03*
X209737500Y-52081250D03*
%TD*%
D23*
%TO.C,CH70*%
X202911250Y-132062500D03*
D24*
X200371250Y-126982500D03*
D21*
X197831250Y-132062500D03*
D24*
X194021250Y-129522500D03*
D23*
X192751250Y-132062500D03*
D25*
X190746250Y-129522500D03*
X203673250Y-126982500D03*
%TD*%
D26*
%TO.C,D79*%
X93056250Y-157275000D03*
X93056250Y-154475000D03*
%TD*%
%TO.C,D14*%
X385950000Y-54881250D03*
X385950000Y-52081250D03*
%TD*%
D23*
%TO.C,CH14*%
X383886250Y-48718750D03*
D24*
X381346250Y-43638750D03*
D21*
X378806250Y-48718750D03*
D24*
X374996250Y-46178750D03*
D23*
X373726250Y-48718750D03*
D25*
X371721250Y-46178750D03*
X384648250Y-43638750D03*
%TD*%
D23*
%TO.C,CH74*%
X279111250Y-132062500D03*
D24*
X276571250Y-126982500D03*
D21*
X274031250Y-132062500D03*
D24*
X270221250Y-129522500D03*
D23*
X268951250Y-132062500D03*
D25*
X266946250Y-129522500D03*
X279873250Y-126982500D03*
%TD*%
D23*
%TO.C,CH49*%
X98136250Y-113012500D03*
D24*
X95596250Y-107932500D03*
D21*
X93056250Y-113012500D03*
D24*
X89246250Y-110472500D03*
D23*
X87976250Y-113012500D03*
D25*
X85971250Y-110472500D03*
X98898250Y-107932500D03*
%TD*%
D26*
%TO.C,D102*%
X553637500Y-121556250D03*
X553637500Y-118756250D03*
%TD*%
%TO.C,D88*%
X496487500Y-54881250D03*
X496487500Y-52081250D03*
%TD*%
D23*
%TO.C,CH8*%
X226723750Y-48718750D03*
D24*
X224183750Y-43638750D03*
D21*
X221643750Y-48718750D03*
D24*
X217833750Y-46178750D03*
D23*
X216563750Y-48718750D03*
D25*
X214558750Y-46178750D03*
X227485750Y-43638750D03*
%TD*%
D26*
%TO.C,D108*%
X620312500Y-131081250D03*
X620312500Y-128281250D03*
%TD*%
D23*
%TO.C,CH48*%
X71942500Y-113012500D03*
D24*
X69402500Y-107932500D03*
D21*
X66862500Y-113012500D03*
D24*
X63052500Y-110472500D03*
D23*
X61782500Y-113012500D03*
D25*
X59777500Y-110472500D03*
X72704500Y-107932500D03*
%TD*%
D26*
%TO.C,D81*%
X188306250Y-157275000D03*
X188306250Y-154475000D03*
%TD*%
%TO.C,D40*%
X247837500Y-100125000D03*
X247837500Y-97325000D03*
%TD*%
%TO.C,D50*%
X119250000Y-119175000D03*
X119250000Y-116375000D03*
%TD*%
D23*
%TO.C,CH107*%
X580148750Y-105868750D03*
D24*
X577608750Y-100788750D03*
D21*
X575068750Y-105868750D03*
D24*
X571258750Y-103328750D03*
D23*
X569988750Y-105868750D03*
D25*
X567983750Y-103328750D03*
X580910750Y-100788750D03*
%TD*%
D26*
%TO.C,D77*%
X395475000Y-138225000D03*
X395475000Y-135425000D03*
%TD*%
D23*
%TO.C,CH61*%
X383886250Y-113012500D03*
D24*
X381346250Y-107932500D03*
D21*
X378806250Y-113012500D03*
D24*
X374996250Y-110472500D03*
D23*
X373726250Y-113012500D03*
D25*
X371721250Y-110472500D03*
X384648250Y-107932500D03*
%TD*%
D26*
%TO.C,D100*%
X515537500Y-112031250D03*
X515537500Y-109231250D03*
%TD*%
%TO.C,D76*%
X376425000Y-138225000D03*
X376425000Y-135425000D03*
%TD*%
%TO.C,D109*%
X601262500Y-131081250D03*
X601262500Y-128281250D03*
%TD*%
D23*
%TO.C,CH108*%
X618248750Y-124918750D03*
D24*
X615708750Y-119838750D03*
D21*
X613168750Y-124918750D03*
D24*
X609358750Y-122378750D03*
D23*
X608088750Y-124918750D03*
D25*
X606083750Y-122378750D03*
X619010750Y-119838750D03*
%TD*%
D23*
%TO.C,CH56*%
X231486250Y-113012500D03*
D24*
X228946250Y-107932500D03*
D21*
X226406250Y-113012500D03*
D24*
X222596250Y-110472500D03*
D23*
X221326250Y-113012500D03*
D25*
X219321250Y-110472500D03*
X232248250Y-107932500D03*
%TD*%
D26*
%TO.C,D78*%
X69243750Y-157275000D03*
X69243750Y-154475000D03*
%TD*%
D23*
%TO.C,CH47*%
X421986250Y-93962500D03*
D24*
X419446250Y-88882500D03*
D21*
X416906250Y-93962500D03*
D24*
X413096250Y-91422500D03*
D23*
X411826250Y-93962500D03*
D25*
X409821250Y-91422500D03*
X422748250Y-88882500D03*
%TD*%
D26*
%TO.C,D30*%
X324037500Y-81075000D03*
X324037500Y-78275000D03*
%TD*%
D21*
%TO.C,CH81*%
X231162500Y-159367500D03*
D22*
X231162500Y-144127500D03*
D23*
X186242500Y-151112500D03*
D24*
X183702500Y-146032500D03*
D21*
X181162500Y-151112500D03*
D24*
X177352500Y-148572500D03*
D23*
X176082500Y-151112500D03*
D21*
X131162500Y-159367500D03*
D22*
X131162500Y-144127500D03*
D25*
X174077500Y-148572500D03*
X187004500Y-146032500D03*
%TD*%
D26*
%TO.C,D103*%
X506012500Y-131081250D03*
X506012500Y-128281250D03*
%TD*%
D23*
%TO.C,CH88*%
X494423750Y-48718750D03*
D24*
X491883750Y-43638750D03*
D21*
X489343750Y-48718750D03*
D24*
X485533750Y-46178750D03*
D23*
X484263750Y-48718750D03*
D25*
X482258750Y-46178750D03*
X495185750Y-43638750D03*
%TD*%
D26*
%TO.C,D97*%
X515537500Y-92981250D03*
X515537500Y-90181250D03*
%TD*%
D23*
%TO.C,CH25*%
X217198750Y-74912500D03*
D24*
X214658750Y-69832500D03*
D21*
X212118750Y-74912500D03*
D24*
X208308750Y-72372500D03*
D23*
X207038750Y-74912500D03*
D25*
X205033750Y-72372500D03*
X217960750Y-69832500D03*
%TD*%
D26*
%TO.C,D35*%
X152587500Y-100125000D03*
X152587500Y-97325000D03*
%TD*%
%TO.C,D15*%
X405000000Y-54881250D03*
X405000000Y-52081250D03*
%TD*%
%TO.C,D10*%
X275940000Y-54881250D03*
X275940000Y-52081250D03*
%TD*%
%TO.C,D38*%
X209737500Y-100125000D03*
X209737500Y-97325000D03*
%TD*%
%TO.C,D48*%
X74006250Y-119175000D03*
X74006250Y-116375000D03*
%TD*%
%TO.C,D70*%
X204975000Y-138225000D03*
X204975000Y-135425000D03*
%TD*%
D23*
%TO.C,CH52*%
X155286250Y-113012500D03*
D24*
X152746250Y-107932500D03*
D21*
X150206250Y-113012500D03*
D24*
X146396250Y-110472500D03*
D23*
X145126250Y-113012500D03*
D25*
X143121250Y-110472500D03*
X156048250Y-107932500D03*
%TD*%
D26*
%TO.C,D91*%
X553637500Y-54881250D03*
X553637500Y-52081250D03*
%TD*%
%TO.C,D19*%
X104962500Y-81075000D03*
X104962500Y-78275000D03*
%TD*%
%TO.C,D53*%
X176400000Y-119175000D03*
X176400000Y-116375000D03*
%TD*%
D23*
%TO.C,CH41*%
X264823750Y-93962500D03*
D24*
X262283750Y-88882500D03*
D21*
X259743750Y-93962500D03*
D24*
X255933750Y-91422500D03*
D23*
X254663750Y-93962500D03*
D25*
X252658750Y-91422500D03*
X265585750Y-88882500D03*
%TD*%
D23*
%TO.C,CH3*%
X121948750Y-48718750D03*
D24*
X119408750Y-43638750D03*
D21*
X116868750Y-48718750D03*
D24*
X113058750Y-46178750D03*
D23*
X111788750Y-48718750D03*
D25*
X109783750Y-46178750D03*
X122710750Y-43638750D03*
%TD*%
D23*
%TO.C,CH35*%
X150523750Y-93962500D03*
D24*
X147983750Y-88882500D03*
D21*
X145443750Y-93962500D03*
D24*
X141633750Y-91422500D03*
D23*
X140363750Y-93962500D03*
D25*
X138358750Y-91422500D03*
X151285750Y-88882500D03*
%TD*%
D23*
%TO.C,CH23*%
X179098750Y-74912500D03*
D24*
X176558750Y-69832500D03*
D21*
X174018750Y-74912500D03*
D24*
X170208750Y-72372500D03*
D23*
X168938750Y-74912500D03*
D25*
X166933750Y-72372500D03*
X179860750Y-69832500D03*
%TD*%
D23*
%TO.C,CH62*%
X402936250Y-113012500D03*
D24*
X400396250Y-107932500D03*
D21*
X397856250Y-113012500D03*
D24*
X394046250Y-110472500D03*
D23*
X392776250Y-113012500D03*
D25*
X390771250Y-110472500D03*
X403698250Y-107932500D03*
%TD*%
D26*
%TO.C,D51*%
X138300000Y-119175000D03*
X138300000Y-116375000D03*
%TD*%
D23*
%TO.C,CH90*%
X532523750Y-48718750D03*
D24*
X529983750Y-43638750D03*
D21*
X527443750Y-48718750D03*
D24*
X523633750Y-46178750D03*
D23*
X522363750Y-48718750D03*
D25*
X520358750Y-46178750D03*
X533285750Y-43638750D03*
%TD*%
D23*
%TO.C,CH54*%
X193386250Y-113012500D03*
D24*
X190846250Y-107932500D03*
D21*
X188306250Y-113012500D03*
D24*
X184496250Y-110472500D03*
D23*
X183226250Y-113012500D03*
D25*
X181221250Y-110472500D03*
X194148250Y-107932500D03*
%TD*%
D26*
%TO.C,D21*%
X143062500Y-81075000D03*
X143062500Y-78275000D03*
%TD*%
%TO.C,D62*%
X405000000Y-119175000D03*
X405000000Y-116375000D03*
%TD*%
%TO.C,D36*%
X171637500Y-100125000D03*
X171637500Y-97325000D03*
%TD*%
%TO.C,D26*%
X238312500Y-81075000D03*
X238312500Y-78275000D03*
%TD*%
%TO.C,D107*%
X582212500Y-112031250D03*
X582212500Y-109231250D03*
%TD*%
D23*
%TO.C,CH78*%
X67180000Y-151112500D03*
D24*
X64640000Y-146032500D03*
D21*
X62100000Y-151112500D03*
D24*
X58290000Y-148572500D03*
D23*
X57020000Y-151112500D03*
D25*
X55015000Y-148572500D03*
X67942000Y-146032500D03*
%TD*%
D23*
%TO.C,CH20*%
X121948750Y-74912500D03*
D24*
X119408750Y-69832500D03*
D21*
X116868750Y-74912500D03*
D24*
X113058750Y-72372500D03*
D23*
X111788750Y-74912500D03*
D25*
X109783750Y-72372500D03*
X122710750Y-69832500D03*
%TD*%
D26*
%TO.C,D34*%
X133537500Y-100125000D03*
X133537500Y-97325000D03*
%TD*%
D23*
%TO.C,CH29*%
X293398750Y-74912500D03*
D24*
X290858750Y-69832500D03*
D21*
X288318750Y-74912500D03*
D24*
X284508750Y-72372500D03*
D23*
X283238750Y-74912500D03*
D25*
X281233750Y-72372500D03*
X294160750Y-69832500D03*
%TD*%
D23*
%TO.C,CH11*%
X293398750Y-48718750D03*
D24*
X290858750Y-43638750D03*
D21*
X288318750Y-48718750D03*
D24*
X284508750Y-46178750D03*
D23*
X283238750Y-48718750D03*
D25*
X281233750Y-46178750D03*
X294160750Y-43638750D03*
%TD*%
D23*
%TO.C,CH33*%
X112423750Y-93962500D03*
D24*
X109883750Y-88882500D03*
D21*
X107343750Y-93962500D03*
D24*
X103533750Y-91422500D03*
D23*
X102263750Y-93962500D03*
D25*
X100258750Y-91422500D03*
X113185750Y-88882500D03*
%TD*%
D23*
%TO.C,CH86*%
X374361250Y-151112500D03*
D24*
X371821250Y-146032500D03*
D21*
X369281250Y-151112500D03*
D24*
X365471250Y-148572500D03*
D23*
X364201250Y-151112500D03*
D25*
X362196250Y-148572500D03*
X375123250Y-146032500D03*
%TD*%
D26*
%TO.C,D65*%
X109725000Y-138225000D03*
X109725000Y-135425000D03*
%TD*%
%TO.C,D74*%
X281175000Y-138225000D03*
X281175000Y-135425000D03*
%TD*%
%TO.C,D24*%
X200212500Y-81075000D03*
X200212500Y-78275000D03*
%TD*%
%TO.C,D90*%
X534587500Y-54881250D03*
X534587500Y-52081250D03*
%TD*%
D23*
%TO.C,CH105*%
X532523750Y-124918750D03*
D24*
X529983750Y-119838750D03*
D21*
X527443750Y-124918750D03*
D24*
X523633750Y-122378750D03*
D23*
X522363750Y-124918750D03*
D25*
X520358750Y-122378750D03*
X533285750Y-119838750D03*
%TD*%
D23*
%TO.C,CH89*%
X513473750Y-48718750D03*
D24*
X510933750Y-43638750D03*
D21*
X508393750Y-48718750D03*
D24*
X504583750Y-46178750D03*
D23*
X503313750Y-48718750D03*
D25*
X501308750Y-46178750D03*
X514235750Y-43638750D03*
%TD*%
D23*
%TO.C,CH15*%
X402936250Y-48718750D03*
D24*
X400396250Y-43638750D03*
D21*
X397856250Y-48718750D03*
D24*
X394046250Y-46178750D03*
D23*
X392776250Y-48718750D03*
D25*
X390771250Y-46178750D03*
X403698250Y-43638750D03*
%TD*%
D23*
%TO.C,CH80*%
X114805000Y-151112500D03*
D24*
X112265000Y-146032500D03*
D21*
X109725000Y-151112500D03*
D24*
X105915000Y-148572500D03*
D23*
X104645000Y-151112500D03*
D25*
X102640000Y-148572500D03*
X115567000Y-146032500D03*
%TD*%
D26*
%TO.C,D8*%
X228787500Y-54881250D03*
X228787500Y-52081250D03*
%TD*%
D23*
%TO.C,CH83*%
X281492500Y-151112500D03*
D24*
X278952500Y-146032500D03*
D21*
X276412500Y-151112500D03*
D24*
X272602500Y-148572500D03*
D23*
X271332500Y-151112500D03*
D25*
X269327500Y-148572500D03*
X282254500Y-146032500D03*
%TD*%
D23*
%TO.C,CH43*%
X302923750Y-93962500D03*
D24*
X300383750Y-88882500D03*
D21*
X297843750Y-93962500D03*
D24*
X294033750Y-91422500D03*
D23*
X292763750Y-93962500D03*
D25*
X290758750Y-91422500D03*
X303685750Y-88882500D03*
%TD*%
D23*
%TO.C,CH24*%
X198148750Y-74912500D03*
D24*
X195608750Y-69832500D03*
D21*
X193068750Y-74912500D03*
D24*
X189258750Y-72372500D03*
D23*
X187988750Y-74912500D03*
D25*
X185983750Y-72372500D03*
X198910750Y-69832500D03*
%TD*%
D26*
%TO.C,D13*%
X333562500Y-54881250D03*
X333562500Y-52081250D03*
%TD*%
D23*
%TO.C,CH7*%
X207673750Y-48718750D03*
D24*
X205133750Y-43638750D03*
D21*
X202593750Y-48718750D03*
D24*
X198783750Y-46178750D03*
D23*
X197513750Y-48718750D03*
D25*
X195508750Y-46178750D03*
X208435750Y-43638750D03*
%TD*%
D23*
%TO.C,CH101*%
X532523750Y-105868750D03*
D24*
X529983750Y-100788750D03*
D21*
X527443750Y-105868750D03*
D24*
X523633750Y-103328750D03*
D23*
X522363750Y-105868750D03*
D25*
X520358750Y-103328750D03*
X533285750Y-100788750D03*
%TD*%
D26*
%TO.C,D5*%
X162112500Y-54881250D03*
X162112500Y-52081250D03*
%TD*%
D23*
%TO.C,CH4*%
X140998750Y-48718750D03*
D24*
X138458750Y-43638750D03*
D21*
X135918750Y-48718750D03*
D24*
X132108750Y-46178750D03*
D23*
X130838750Y-48718750D03*
D25*
X128833750Y-46178750D03*
X141760750Y-43638750D03*
%TD*%
D23*
%TO.C,CH10*%
X274348750Y-48718750D03*
D24*
X271808750Y-43638750D03*
D21*
X269268750Y-48718750D03*
D24*
X265458750Y-46178750D03*
D23*
X264188750Y-48718750D03*
D25*
X262183750Y-46178750D03*
X275110750Y-43638750D03*
%TD*%
D21*
%TO.C,CH95*%
X554748750Y-89231750D03*
X554748750Y-65355750D03*
D23*
X551573750Y-77293750D03*
D24*
X549033750Y-72213750D03*
D21*
X546493750Y-77293750D03*
D24*
X542683750Y-74753750D03*
D23*
X541413750Y-77293750D03*
D22*
X539508750Y-89231750D03*
X539508750Y-65355750D03*
D25*
X539408750Y-74753750D03*
X552335750Y-72213750D03*
%TD*%
D23*
%TO.C,CH82*%
X257680000Y-151112500D03*
D24*
X255140000Y-146032500D03*
D21*
X252600000Y-151112500D03*
D24*
X248790000Y-148572500D03*
D23*
X247520000Y-151112500D03*
D25*
X245515000Y-148572500D03*
X258442000Y-146032500D03*
%TD*%
D26*
%TO.C,D22*%
X162112500Y-81075000D03*
X162112500Y-78275000D03*
%TD*%
%TO.C,D84*%
X307368750Y-157275000D03*
X307368750Y-154475000D03*
%TD*%
%TO.C,D4*%
X143062500Y-54881250D03*
X143062500Y-52081250D03*
%TD*%
D23*
%TO.C,CH97*%
X513473750Y-86818750D03*
D24*
X510933750Y-81738750D03*
D21*
X508393750Y-86818750D03*
D24*
X504583750Y-84278750D03*
D23*
X503313750Y-86818750D03*
D25*
X501308750Y-84278750D03*
X514235750Y-81738750D03*
%TD*%
D23*
%TO.C,CH22*%
X160048750Y-74912500D03*
D24*
X157508750Y-69832500D03*
D21*
X154968750Y-74912500D03*
D24*
X151158750Y-72372500D03*
D23*
X149888750Y-74912500D03*
D25*
X147883750Y-72372500D03*
X160810750Y-69832500D03*
%TD*%
D26*
%TO.C,D37*%
X190687500Y-100125000D03*
X190687500Y-97325000D03*
%TD*%
D21*
%TO.C,CH75*%
X321688000Y-140317500D03*
D22*
X321688000Y-125077500D03*
D23*
X314830000Y-132062500D03*
D24*
X312290000Y-126982500D03*
D21*
X309750000Y-132062500D03*
D24*
X305940000Y-129522500D03*
D23*
X304670000Y-132062500D03*
D21*
X297812000Y-140317500D03*
D22*
X297812000Y-125077500D03*
D25*
X302665000Y-129522500D03*
X315592000Y-126982500D03*
%TD*%
D26*
%TO.C,D71*%
X224025000Y-138225000D03*
X224025000Y-135425000D03*
%TD*%
D23*
%TO.C,CH104*%
X618248750Y-105868750D03*
D24*
X615708750Y-100788750D03*
D21*
X613168750Y-105868750D03*
D24*
X609358750Y-103328750D03*
D23*
X608088750Y-105868750D03*
D25*
X606083750Y-103328750D03*
X619010750Y-100788750D03*
%TD*%
D23*
%TO.C,CH2*%
X102898750Y-48718750D03*
D24*
X100358750Y-43638750D03*
D21*
X97818750Y-48718750D03*
D24*
X94008750Y-46178750D03*
D23*
X92738750Y-48718750D03*
D25*
X90733750Y-46178750D03*
X103660750Y-43638750D03*
%TD*%
D23*
%TO.C,CH27*%
X255298750Y-74912500D03*
D24*
X252758750Y-69832500D03*
D21*
X250218750Y-74912500D03*
D24*
X246408750Y-72372500D03*
D23*
X245138750Y-74912500D03*
D25*
X243133750Y-72372500D03*
X256060750Y-69832500D03*
%TD*%
D26*
%TO.C,D31*%
X71625000Y-100125000D03*
X71625000Y-97325000D03*
%TD*%
%TO.C,D47*%
X424050000Y-100125000D03*
X424050000Y-97325000D03*
%TD*%
D23*
%TO.C,CH98*%
X532523750Y-86818750D03*
D24*
X529983750Y-81738750D03*
D21*
X527443750Y-86818750D03*
D24*
X523633750Y-84278750D03*
D23*
X522363750Y-86818750D03*
D25*
X520358750Y-84278750D03*
X533285750Y-81738750D03*
%TD*%
D23*
%TO.C,CH66*%
X126711250Y-132062500D03*
D24*
X124171250Y-126982500D03*
D21*
X121631250Y-132062500D03*
D24*
X117821250Y-129522500D03*
D23*
X116551250Y-132062500D03*
D25*
X114546250Y-129522500D03*
X127473250Y-126982500D03*
%TD*%
D26*
%TO.C,D9*%
X247837500Y-54881250D03*
X247837500Y-52081250D03*
%TD*%
D23*
%TO.C,CH46*%
X402936250Y-93962500D03*
D24*
X400396250Y-88882500D03*
D21*
X397856250Y-93962500D03*
D24*
X394046250Y-91422500D03*
D23*
X392776250Y-93962500D03*
D25*
X390771250Y-91422500D03*
X403698250Y-88882500D03*
%TD*%
D23*
%TO.C,CH71*%
X221961250Y-132062500D03*
D24*
X219421250Y-126982500D03*
D21*
X216881250Y-132062500D03*
D24*
X213071250Y-129522500D03*
D23*
X211801250Y-132062500D03*
D25*
X209796250Y-129522500D03*
X222723250Y-126982500D03*
%TD*%
D23*
%TO.C,CH68*%
X164811250Y-132062500D03*
D24*
X162271250Y-126982500D03*
D21*
X159731250Y-132062500D03*
D24*
X155921250Y-129522500D03*
D23*
X154651250Y-132062500D03*
D25*
X152646250Y-129522500D03*
X165573250Y-126982500D03*
%TD*%
D26*
%TO.C,D98*%
X534587500Y-92981250D03*
X534587500Y-90181250D03*
%TD*%
D23*
%TO.C,CH59*%
X288636250Y-113012500D03*
D24*
X286096250Y-107932500D03*
D21*
X283556250Y-113012500D03*
D24*
X279746250Y-110472500D03*
D23*
X278476250Y-113012500D03*
D25*
X276471250Y-110472500D03*
X289398250Y-107932500D03*
%TD*%
D23*
%TO.C,CH106*%
X599198750Y-105868750D03*
D24*
X596658750Y-100788750D03*
D21*
X594118750Y-105868750D03*
D24*
X590308750Y-103328750D03*
D23*
X589038750Y-105868750D03*
D25*
X587033750Y-103328750D03*
X599960750Y-100788750D03*
%TD*%
D23*
%TO.C,CH92*%
X494423750Y-67768750D03*
D24*
X491883750Y-62688750D03*
D21*
X489343750Y-67768750D03*
D24*
X485533750Y-65228750D03*
D23*
X484263750Y-67768750D03*
D25*
X482258750Y-65228750D03*
X495185750Y-62688750D03*
%TD*%
D26*
%TO.C,D52*%
X157350000Y-119175000D03*
X157350000Y-116375000D03*
%TD*%
%TO.C,D104*%
X620312500Y-112031250D03*
X620312500Y-109231250D03*
%TD*%
D23*
%TO.C,CH9*%
X245773750Y-48718750D03*
D24*
X243233750Y-43638750D03*
D21*
X240693750Y-48718750D03*
D24*
X236883750Y-46178750D03*
D23*
X235613750Y-48718750D03*
D25*
X233608750Y-46178750D03*
X246535750Y-43638750D03*
%TD*%
D26*
%TO.C,D58*%
X271650000Y-119175000D03*
X271650000Y-116375000D03*
%TD*%
D23*
%TO.C,CH87*%
X393411250Y-151112500D03*
D24*
X390871250Y-146032500D03*
D21*
X388331250Y-151112500D03*
D24*
X384521250Y-148572500D03*
D23*
X383251250Y-151112500D03*
D25*
X381246250Y-148572500D03*
X394173250Y-146032500D03*
%TD*%
D23*
%TO.C,CH76*%
X374361250Y-132062500D03*
D24*
X371821250Y-126982500D03*
D21*
X369281250Y-132062500D03*
D24*
X365471250Y-129522500D03*
D23*
X364201250Y-132062500D03*
D25*
X362196250Y-129522500D03*
X375123250Y-126982500D03*
%TD*%
D23*
%TO.C,CH65*%
X107661250Y-132062500D03*
D24*
X105121250Y-126982500D03*
D21*
X102581250Y-132062500D03*
D24*
X98771250Y-129522500D03*
D23*
X97501250Y-132062500D03*
D25*
X95496250Y-129522500D03*
X108423250Y-126982500D03*
%TD*%
D26*
%TO.C,D12*%
X314512500Y-54881250D03*
X314512500Y-52081250D03*
%TD*%
%TO.C,D41*%
X266887500Y-100125000D03*
X266887500Y-97325000D03*
%TD*%
%TO.C,D18*%
X85912500Y-81075000D03*
X85912500Y-78275000D03*
%TD*%
%TO.C,D32*%
X95437500Y-100125000D03*
X95437500Y-97325000D03*
%TD*%
D23*
%TO.C,CH1*%
X64798750Y-48718750D03*
D24*
X62258750Y-43638750D03*
D21*
X59718750Y-48718750D03*
D24*
X55908750Y-46178750D03*
D23*
X54638750Y-48718750D03*
D25*
X52633750Y-46178750D03*
X65560750Y-43638750D03*
%TD*%
D23*
%TO.C,CH17*%
X64798750Y-74912500D03*
D24*
X62258750Y-69832500D03*
D21*
X59718750Y-74912500D03*
D24*
X55908750Y-72372500D03*
D23*
X54638750Y-74912500D03*
D25*
X52633750Y-72372500D03*
X65560750Y-69832500D03*
%TD*%
D23*
%TO.C,CH99*%
X494423750Y-105868750D03*
D24*
X491883750Y-100788750D03*
D21*
X489343750Y-105868750D03*
D24*
X485533750Y-103328750D03*
D23*
X484263750Y-105868750D03*
D25*
X482258750Y-103328750D03*
X495185750Y-100788750D03*
%TD*%
D26*
%TO.C,D94*%
X534587500Y-73931250D03*
X534587500Y-71131250D03*
%TD*%
%TO.C,D89*%
X515537500Y-54881250D03*
X515537500Y-52081250D03*
%TD*%
%TO.C,D85*%
X331181250Y-157275000D03*
X331181250Y-154475000D03*
%TD*%
%TO.C,D28*%
X276412500Y-81075000D03*
X276412500Y-78275000D03*
%TD*%
%TO.C,D80*%
X116868750Y-157275000D03*
X116868750Y-154475000D03*
%TD*%
%TO.C,D110*%
X582212500Y-131081250D03*
X582212500Y-128281250D03*
%TD*%
%TO.C,D3*%
X124012500Y-54881250D03*
X124012500Y-52081250D03*
%TD*%
D23*
%TO.C,CH51*%
X136236250Y-113012500D03*
D24*
X133696250Y-107932500D03*
D21*
X131156250Y-113012500D03*
D24*
X127346250Y-110472500D03*
D23*
X126076250Y-113012500D03*
D25*
X124071250Y-110472500D03*
X136998250Y-107932500D03*
%TD*%
D23*
%TO.C,CH32*%
X93373750Y-93962500D03*
D24*
X90833750Y-88882500D03*
D21*
X88293750Y-93962500D03*
D24*
X84483750Y-91422500D03*
D23*
X83213750Y-93962500D03*
D25*
X81208750Y-91422500D03*
X94135750Y-88882500D03*
%TD*%
D26*
%TO.C,D64*%
X78768750Y-138225000D03*
X78768750Y-135425000D03*
%TD*%
D23*
%TO.C,CH40*%
X245773750Y-93962500D03*
D24*
X243233750Y-88882500D03*
D21*
X240693750Y-93962500D03*
D24*
X236883750Y-91422500D03*
D23*
X235613750Y-93962500D03*
D25*
X233608750Y-91422500D03*
X246535750Y-88882500D03*
%TD*%
D26*
%TO.C,D33*%
X114487500Y-100125000D03*
X114487500Y-97325000D03*
%TD*%
%TO.C,D25*%
X219262500Y-81075000D03*
X219262500Y-78275000D03*
%TD*%
%TO.C,D11*%
X295462500Y-54881250D03*
X295462500Y-52081250D03*
%TD*%
D23*
%TO.C,CH73*%
X260061250Y-132062500D03*
D24*
X257521250Y-126982500D03*
D21*
X254981250Y-132062500D03*
D24*
X251171250Y-129522500D03*
D23*
X249901250Y-132062500D03*
D25*
X247896250Y-129522500D03*
X260823250Y-126982500D03*
%TD*%
D26*
%TO.C,D63*%
X424050000Y-119175000D03*
X424050000Y-116375000D03*
%TD*%
D23*
%TO.C,CH13*%
X331498750Y-48718750D03*
D24*
X328958750Y-43638750D03*
D21*
X326418750Y-48718750D03*
D24*
X322608750Y-46178750D03*
D23*
X321338750Y-48718750D03*
D25*
X319333750Y-46178750D03*
X332260750Y-43638750D03*
%TD*%
D26*
%TO.C,D101*%
X534587500Y-112031250D03*
X534587500Y-109231250D03*
%TD*%
%TO.C,D95*%
X553637500Y-83456250D03*
X553637500Y-80656250D03*
%TD*%
%TO.C,D49*%
X100200000Y-119175000D03*
X100200000Y-116375000D03*
%TD*%
D23*
%TO.C,CH53*%
X174336250Y-113012500D03*
D24*
X171796250Y-107932500D03*
D21*
X169256250Y-113012500D03*
D24*
X165446250Y-110472500D03*
D23*
X164176250Y-113012500D03*
D25*
X162171250Y-110472500D03*
X175098250Y-107932500D03*
%TD*%
D21*
%TO.C,CH102*%
X554748750Y-127331750D03*
X554748750Y-103455750D03*
D23*
X551573750Y-115393750D03*
D24*
X549033750Y-110313750D03*
D21*
X546493750Y-115393750D03*
D24*
X542683750Y-112853750D03*
D23*
X541413750Y-115393750D03*
D22*
X539508750Y-127331750D03*
X539508750Y-103455750D03*
D25*
X539408750Y-112853750D03*
X552335750Y-110313750D03*
%TD*%
D23*
%TO.C,CH21*%
X140998750Y-74912500D03*
D24*
X138458750Y-69832500D03*
D21*
X135918750Y-74912500D03*
D24*
X132108750Y-72372500D03*
D23*
X130838750Y-74912500D03*
D25*
X128833750Y-72372500D03*
X141760750Y-69832500D03*
%TD*%
D23*
%TO.C,CH55*%
X212436250Y-113012500D03*
D24*
X209896250Y-107932500D03*
D21*
X207356250Y-113012500D03*
D24*
X203546250Y-110472500D03*
D23*
X202276250Y-113012500D03*
D25*
X200271250Y-110472500D03*
X213198250Y-107932500D03*
%TD*%
D26*
%TO.C,D44*%
X328800000Y-100125000D03*
X328800000Y-97325000D03*
%TD*%
D21*
%TO.C,CH30*%
X328831750Y-83167500D03*
D22*
X328831750Y-67927500D03*
D23*
X321973750Y-74912500D03*
D24*
X319433750Y-69832500D03*
D21*
X316893750Y-74912500D03*
D24*
X313083750Y-72372500D03*
D23*
X311813750Y-74912500D03*
D21*
X304955750Y-83167500D03*
D22*
X304955750Y-67927500D03*
D25*
X309808750Y-72372500D03*
X322735750Y-69832500D03*
%TD*%
D23*
%TO.C,CH77*%
X393411250Y-132062500D03*
D24*
X390871250Y-126982500D03*
D21*
X388331250Y-132062500D03*
D24*
X384521250Y-129522500D03*
D23*
X383251250Y-132062500D03*
D25*
X381246250Y-129522500D03*
X394173250Y-126982500D03*
%TD*%
D23*
%TO.C,CH19*%
X102898750Y-74912500D03*
D24*
X100358750Y-69832500D03*
D21*
X97818750Y-74912500D03*
D24*
X94008750Y-72372500D03*
D23*
X92738750Y-74912500D03*
D25*
X90733750Y-72372500D03*
X103660750Y-69832500D03*
%TD*%
D26*
%TO.C,D69*%
X185925000Y-138225000D03*
X185925000Y-135425000D03*
%TD*%
%TO.C,D57*%
X252600000Y-119175000D03*
X252600000Y-116375000D03*
%TD*%
%TO.C,D93*%
X515537500Y-73931250D03*
X515537500Y-71131250D03*
%TD*%
%TO.C,D54*%
X195450000Y-119175000D03*
X195450000Y-116375000D03*
%TD*%
D23*
%TO.C,CH58*%
X269586250Y-113012500D03*
D24*
X267046250Y-107932500D03*
D21*
X264506250Y-113012500D03*
D24*
X260696250Y-110472500D03*
D23*
X259426250Y-113012500D03*
D25*
X257421250Y-110472500D03*
X270348250Y-107932500D03*
%TD*%
D23*
%TO.C,CH91*%
X551573750Y-48718750D03*
D24*
X549033750Y-43638750D03*
D21*
X546493750Y-48718750D03*
D24*
X542683750Y-46178750D03*
D23*
X541413750Y-48718750D03*
D25*
X539408750Y-46178750D03*
X552335750Y-43638750D03*
%TD*%
D26*
%TO.C,D42*%
X285937500Y-100125000D03*
X285937500Y-97325000D03*
%TD*%
%TO.C,D1*%
X66862500Y-54881250D03*
X66862500Y-52081250D03*
%TD*%
%TO.C,D106*%
X601262500Y-112031250D03*
X601262500Y-109231250D03*
%TD*%
D23*
%TO.C,CH100*%
X513473750Y-105868750D03*
D24*
X510933750Y-100788750D03*
D21*
X508393750Y-105868750D03*
D24*
X504583750Y-103328750D03*
D23*
X503313750Y-105868750D03*
D25*
X501308750Y-103328750D03*
X514235750Y-100788750D03*
%TD*%
D26*
%TO.C,D59*%
X290700000Y-119175000D03*
X290700000Y-116375000D03*
%TD*%
D23*
%TO.C,CH69*%
X183861250Y-132062500D03*
D24*
X181321250Y-126982500D03*
D21*
X178781250Y-132062500D03*
D24*
X174971250Y-129522500D03*
D23*
X173701250Y-132062500D03*
D25*
X171696250Y-129522500D03*
X184623250Y-126982500D03*
%TD*%
D23*
%TO.C,CH109*%
X599198750Y-124918750D03*
D24*
X596658750Y-119838750D03*
D21*
X594118750Y-124918750D03*
D24*
X590308750Y-122378750D03*
D23*
X589038750Y-124918750D03*
D25*
X587033750Y-122378750D03*
X599960750Y-119838750D03*
%TD*%
D23*
%TO.C,CH31*%
X69561250Y-93962500D03*
D24*
X67021250Y-88882500D03*
D21*
X64481250Y-93962500D03*
D24*
X60671250Y-91422500D03*
D23*
X59401250Y-93962500D03*
D25*
X57396250Y-91422500D03*
X70323250Y-88882500D03*
%TD*%
D21*
%TO.C,CH103*%
X510806750Y-133173750D03*
D22*
X510806750Y-117933750D03*
D23*
X503948750Y-124918750D03*
D24*
X501408750Y-119838750D03*
D21*
X498868750Y-124918750D03*
D24*
X495058750Y-122378750D03*
D23*
X493788750Y-124918750D03*
D21*
X486930750Y-133173750D03*
D22*
X486930750Y-117933750D03*
D25*
X491783750Y-122378750D03*
X504710750Y-119838750D03*
%TD*%
D23*
%TO.C,CH67*%
X145761250Y-132062500D03*
D24*
X143221250Y-126982500D03*
D21*
X140681250Y-132062500D03*
D24*
X136871250Y-129522500D03*
D23*
X135601250Y-132062500D03*
D25*
X133596250Y-129522500D03*
X146523250Y-126982500D03*
%TD*%
D26*
%TO.C,D73*%
X262125000Y-138225000D03*
X262125000Y-135425000D03*
%TD*%
%TO.C,D39*%
X228787500Y-100125000D03*
X228787500Y-97325000D03*
%TD*%
D23*
%TO.C,CH72*%
X241011250Y-132062500D03*
D24*
X238471250Y-126982500D03*
D21*
X235931250Y-132062500D03*
D24*
X232121250Y-129522500D03*
D23*
X230851250Y-132062500D03*
D25*
X228846250Y-129522500D03*
X241773250Y-126982500D03*
%TD*%
D23*
%TO.C,CH63*%
X421986250Y-113012500D03*
D24*
X419446250Y-107932500D03*
D21*
X416906250Y-113012500D03*
D24*
X413096250Y-110472500D03*
D23*
X411826250Y-113012500D03*
D25*
X409821250Y-110472500D03*
X422748250Y-107932500D03*
%TD*%
D26*
%TO.C,D45*%
X385950000Y-100125000D03*
X385950000Y-97325000D03*
%TD*%
D23*
%TO.C,CH57*%
X250536250Y-113012500D03*
D24*
X247996250Y-107932500D03*
D21*
X245456250Y-113012500D03*
D24*
X241646250Y-110472500D03*
D23*
X240376250Y-113012500D03*
D25*
X238371250Y-110472500D03*
X251298250Y-107932500D03*
%TD*%
D23*
%TO.C,CH85*%
X329117500Y-151112500D03*
D24*
X326577500Y-146032500D03*
D21*
X324037500Y-151112500D03*
D24*
X320227500Y-148572500D03*
D23*
X318957500Y-151112500D03*
D25*
X316952500Y-148572500D03*
X329879500Y-146032500D03*
%TD*%
D26*
%TO.C,D83*%
X283556250Y-157275000D03*
X283556250Y-154475000D03*
%TD*%
%TO.C,D67*%
X147825000Y-138225000D03*
X147825000Y-135425000D03*
%TD*%
%TO.C,D27*%
X257362500Y-81075000D03*
X257362500Y-78275000D03*
%TD*%
%TO.C,D99*%
X496487500Y-112031250D03*
X496487500Y-109231250D03*
%TD*%
D23*
%TO.C,CH16*%
X421986250Y-48718750D03*
D24*
X419446250Y-43638750D03*
D21*
X416906250Y-48718750D03*
D24*
X413096250Y-46178750D03*
D23*
X411826250Y-48718750D03*
D25*
X409821250Y-46178750D03*
X422748250Y-43638750D03*
%TD*%
D23*
%TO.C,CH93*%
X513473750Y-67768750D03*
D24*
X510933750Y-62688750D03*
D21*
X508393750Y-67768750D03*
D24*
X504583750Y-65228750D03*
D23*
X503313750Y-67768750D03*
D25*
X501308750Y-65228750D03*
X514235750Y-62688750D03*
%TD*%
D26*
%TO.C,D60*%
X321656250Y-119175000D03*
X321656250Y-116375000D03*
%TD*%
D21*
%TO.C,CH64*%
X83563000Y-140317500D03*
D22*
X83563000Y-125077500D03*
D23*
X76705000Y-132062500D03*
D24*
X74165000Y-126982500D03*
D21*
X71625000Y-132062500D03*
D24*
X67815000Y-129522500D03*
D23*
X66545000Y-132062500D03*
D21*
X59687000Y-140317500D03*
D22*
X59687000Y-125077500D03*
D25*
X64540000Y-129522500D03*
X77467000Y-126982500D03*
%TD*%
D23*
%TO.C,CH94*%
X532523750Y-67768750D03*
D24*
X529983750Y-62688750D03*
D21*
X527443750Y-67768750D03*
D24*
X523633750Y-65228750D03*
D23*
X522363750Y-67768750D03*
D25*
X520358750Y-65228750D03*
X533285750Y-62688750D03*
%TD*%
D26*
%TO.C,D96*%
X496487500Y-92981250D03*
X496487500Y-90181250D03*
%TD*%
%TO.C,D68*%
X166875000Y-138225000D03*
X166875000Y-135425000D03*
%TD*%
D23*
%TO.C,CH45*%
X383886250Y-93962500D03*
D24*
X381346250Y-88882500D03*
D21*
X378806250Y-93962500D03*
D24*
X374996250Y-91422500D03*
D23*
X373726250Y-93962500D03*
D25*
X371721250Y-91422500D03*
X384648250Y-88882500D03*
%TD*%
D23*
%TO.C,CH38*%
X207673750Y-93962500D03*
D24*
X205133750Y-88882500D03*
D21*
X202593750Y-93962500D03*
D24*
X198783750Y-91422500D03*
D23*
X197513750Y-93962500D03*
D25*
X195508750Y-91422500D03*
X208435750Y-88882500D03*
%TD*%
D23*
%TO.C,CH96*%
X494423750Y-86818750D03*
D24*
X491883750Y-81738750D03*
D21*
X489343750Y-86818750D03*
D24*
X485533750Y-84278750D03*
D23*
X484263750Y-86818750D03*
D25*
X482258750Y-84278750D03*
X495185750Y-81738750D03*
%TD*%
M02*
