M48
; DRILL file {KiCad 9.0.4} date 2026-04-02T16:29:03-0700
; FORMAT={-:-/ absolute / metric / decimal}
; #@! TF.CreationDate,2026-04-02T16:29:03-07:00
; #@! TF.GenerationSoftware,Kicad,Pcbnew,9.0.4
; #@! TF.FileFunction,Plated,1,2,PTH
FMAT,2
METRIC
; #@! TA.AperFunction,Plated,PTH,ViaDrill
T1C0.300
; #@! TA.AperFunction,Plated,PTH,ComponentDrill
T2C0.900
; #@! TA.AperFunction,Plated,PTH,ComponentDrill
T3C0.991
; #@! TA.AperFunction,Plated,PTH,ComponentDrill
T4C1.016
; #@! TA.AperFunction,Plated,PTH,ComponentDrill
T5C4.000
%
G90
G05
T1
X69.3Y-54.9
X69.3Y-81.1
X71.4Y-157.25
X74.2Y-100.15
X76.45Y-119.2
X81.15Y-138.25
X88.3Y-81.1
X95.45Y-157.25
X97.8Y-100.1
X102.6Y-119.15
X107.3Y-54.85
X107.55Y-81.05
X112.2Y-138.25
X117.0Y-100.1
X119.75Y-157.25
X121.75Y-119.15
X126.45Y-81.1
X126.55Y-54.9
X131.2Y-138.2
X135.85Y-100.1
X140.75Y-119.15
X145.55Y-81.05
X145.6Y-54.85
X150.3Y-138.2
X155.15Y-100.05
X159.85Y-119.15
X164.65Y-54.85
X164.65Y-81.05
X169.35Y-138.2
X174.2Y-100.1
X179.0Y-119.2
X183.7Y-81.05
X185.9Y-157.25
X188.45Y-138.2
X193.2Y-54.85
X193.25Y-100.1
X198.1Y-119.2
X202.75Y-81.05
X207.5Y-138.15
X212.25Y-54.85
X212.25Y-100.1
X217.0Y-119.15
X221.75Y-81.05
X226.55Y-138.2
X231.3Y-54.8
X231.35Y-100.15
X236.1Y-119.15
X240.85Y-81.05
X245.6Y-138.2
X250.4Y-54.85
X250.4Y-100.1
X255.15Y-119.15
X256.8Y-157.25
X259.85Y-81.05
X264.55Y-138.25
X269.4Y-100.1
X274.2Y-119.15
X278.9Y-54.8
X278.9Y-81.05
X280.35Y-157.2
X283.75Y-138.2
X288.45Y-100.1
X293.2Y-119.15
X297.95Y-81.05
X298.05Y-54.85
X304.0Y-157.25
X307.5Y-100.1
X314.1Y-138.2
X317.0Y-54.9
X324.05Y-119.1
X326.5Y-81.0
X328.55Y-157.25
X331.25Y-99.35
X336.15Y-54.9
X366.2Y-118.4
X368.143Y-90.45
X368.3Y-102.6
X370.1Y-62.05
X370.55Y-119.175
X371.721Y-94.021
X372.8Y-157.25
X378.35Y-119.8
X378.95Y-138.2
X380.15Y-102.45
X388.2Y-118.65
X388.55Y-54.8
X389.6Y-101.2
X389.6Y-118.65
X392.0Y-122.8
X392.4Y-157.25
X393.65Y-62.05
X398.0Y-138.2
X404.4Y-122.8
X407.3Y-119.2
X407.5Y-54.9
X407.55Y-84.658
X407.55Y-100.1
X407.8Y-86.0
X426.4Y-100.15
X426.45Y-119.2
X426.5Y-54.9
X426.5Y-86.25
X426.5Y-90.5
X498.981Y-52.3
X498.981Y-71.4
X498.981Y-90.4
X498.981Y-109.5
X508.381Y-128.7
X518.081Y-52.3
X518.081Y-71.3
X518.081Y-90.4
X518.081Y-109.4
X537.081Y-52.4
X537.081Y-71.438
X537.081Y-90.5
X537.081Y-109.5
X537.081Y-128.6
X557.581Y-79.5
X557.581Y-117.6
X559.581Y-54.85
X567.981Y-100.0
X570.0Y-94.0
X584.381Y-114.2
X584.381Y-133.3
X588.897Y-91.0
X588.931Y-95.5
X603.019Y-98.1
X603.481Y-114.2
X603.481Y-133.3
X623.281Y-109.0
X623.981Y-127.401
X625.137Y-101.182
T2
X587.46Y-40.0
X590.0Y-40.0
X594.46Y-40.0
X597.0Y-40.0
X601.46Y-40.0
X604.0Y-40.0
T3
X590.0Y-46.92
X590.0Y-57.08
X597.0Y-44.92
X597.0Y-55.08
X604.0Y-43.92
X604.0Y-54.08
T4
X432.972Y-71.403
X432.972Y-76.483
X432.972Y-81.562
X432.972Y-86.642
X432.972Y-91.722
X432.972Y-96.802
X432.972Y-101.882
X432.972Y-106.962
X432.972Y-112.042
X432.972Y-117.122
X433.226Y-68.862
X433.226Y-73.942
X433.226Y-79.022
X433.226Y-84.102
X433.226Y-89.182
X433.226Y-94.262
X433.226Y-99.343
X433.226Y-104.422
X433.226Y-109.502
X433.226Y-114.582
X436.909Y-113.139
X439.449Y-112.885
X441.989Y-113.139
X444.529Y-112.885
X448.212Y-68.862
X448.212Y-73.942
X448.212Y-79.022
X448.212Y-84.102
X448.212Y-89.182
X448.212Y-94.262
X448.212Y-99.343
X448.212Y-104.422
X448.212Y-109.502
X448.212Y-114.582
X448.466Y-71.403
X448.466Y-76.483
X448.466Y-81.562
X448.466Y-86.642
X448.466Y-91.722
X448.466Y-96.802
X448.466Y-101.882
X448.466Y-106.962
X448.466Y-112.042
X448.466Y-117.122
X568.577Y-62.403
X568.577Y-77.897
X571.117Y-62.657
X571.117Y-77.643
X572.56Y-66.34
X572.56Y-71.42
X572.814Y-68.88
X572.814Y-73.96
X573.658Y-62.403
X573.658Y-77.897
X576.197Y-62.657
X576.197Y-77.643
X578.737Y-62.403
X578.737Y-77.897
X581.277Y-62.657
X581.277Y-77.643
X583.817Y-62.403
X583.817Y-77.897
X586.357Y-62.657
X586.357Y-77.643
X588.897Y-62.403
X588.897Y-77.897
X591.438Y-62.657
X591.438Y-77.643
X593.977Y-62.403
X593.977Y-77.897
X596.517Y-62.657
X596.517Y-77.643
X599.058Y-62.403
X599.058Y-77.897
X601.597Y-62.657
X601.597Y-77.643
X604.137Y-62.403
X604.137Y-77.897
X606.678Y-62.657
X606.678Y-77.643
X609.217Y-62.403
X609.217Y-77.897
X611.757Y-62.657
X611.757Y-77.643
X614.298Y-62.403
X614.298Y-77.897
X616.837Y-62.657
X616.837Y-77.643
T5
X47.0Y-36.0
X47.0Y-164.0
X456.0Y-36.0
X456.0Y-164.0
X476.0Y-36.0
X476.0Y-138.0
X631.0Y-36.0
X631.0Y-138.0
T2
G00X76.469Y-40.419
M15
G01X76.469Y-40.819
M16
G05
G00X81.069Y-32.319
M15
G01X81.069Y-32.719
M16
G05
G00X81.069Y-35.319
M15
G01X81.069Y-35.719
M16
G05
G00X81.069Y-39.319
M15
G01X81.069Y-39.719
M16
G05
G00X613.319Y-39.987
M15
G01X613.319Y-40.387
M16
G05
G00X617.919Y-31.887
M15
G01X617.919Y-32.288
M16
G05
G00X617.919Y-34.887
M15
G01X617.919Y-35.288
M16
G05
G00X617.919Y-38.887
M15
G01X617.919Y-39.288
M16
G05
M30
