M48
; DRILL file {KiCad 9.0.4} date 2026-04-08T20:24:00-0700
; FORMAT={-:-/ absolute / metric / decimal}
; #@! TF.CreationDate,2026-04-08T20:24:00-07:00
; #@! TF.GenerationSoftware,Kicad,Pcbnew,9.0.4
; #@! TF.FileFunction,NonPlated,1,2,NPTH
FMAT,2
METRIC
; #@! TA.AperFunction,NonPlated,NPTH,ComponentDrill
T1C0.500
; #@! TA.AperFunction,NonPlated,NPTH,ComponentDrill
T2C1.200
; #@! TA.AperFunction,NonPlated,NPTH,ComponentDrill
T3C1.702
; #@! TA.AperFunction,NonPlated,NPTH,ComponentDrill
T4C3.000
; #@! TA.AperFunction,NonPlated,NPTH,ComponentDrill
T5C3.048
; #@! TA.AperFunction,NonPlated,NPTH,ComponentDrill
T6C3.988
%
G90
G05
T1
X37.75Y-37.45
X37.75Y-38.3
X37.75Y-39.15
X37.75Y-40.0
X37.75Y-40.85
X37.75Y-41.7
X37.75Y-42.55
X37.75Y-97.45
X37.75Y-98.3
X37.75Y-99.15
X37.75Y-100.0
X37.75Y-100.85
X37.75Y-101.7
X37.75Y-102.55
X37.75Y-157.45
X37.75Y-158.3
X37.75Y-159.15
X37.75Y-160.0
X37.75Y-160.85
X37.75Y-161.7
X37.75Y-162.55
X38.0Y-20.8
X38.0Y-21.65
X38.0Y-22.5
X38.0Y-23.35
X38.0Y-24.2
X38.0Y-175.8
X38.0Y-176.65
X38.0Y-177.5
X38.0Y-178.35
X38.0Y-179.2
X465.25Y-37.45
X465.25Y-38.3
X465.25Y-39.15
X465.25Y-40.0
X465.25Y-40.85
X465.25Y-41.7
X465.25Y-42.55
X465.25Y-84.45
X465.25Y-85.3
X465.25Y-86.15
X465.25Y-87.0
X465.25Y-87.85
X465.25Y-88.7
X465.25Y-89.55
X465.25Y-131.45
X465.25Y-132.3
X465.25Y-133.15
X465.25Y-134.0
X465.25Y-134.85
X465.25Y-135.7
X465.25Y-136.55
X466.75Y-37.45
X466.75Y-38.3
X466.75Y-39.15
X466.75Y-40.0
X466.75Y-40.85
X466.75Y-41.7
X466.75Y-42.55
X466.75Y-84.45
X466.75Y-85.3
X466.75Y-86.15
X466.75Y-87.0
X466.75Y-87.85
X466.75Y-88.7
X466.75Y-89.55
X466.75Y-131.45
X466.75Y-132.3
X466.75Y-133.15
X466.75Y-134.0
X466.75Y-134.85
X466.75Y-135.7
X466.75Y-136.55
X640.0Y-20.8
X640.0Y-21.65
X640.0Y-22.5
X640.0Y-23.35
X640.0Y-24.2
X640.0Y-175.8
X640.0Y-176.65
X640.0Y-177.5
X640.0Y-178.35
X640.0Y-179.2
X640.25Y-37.45
X640.25Y-38.3
X640.25Y-39.15
X640.25Y-40.0
X640.25Y-40.85
X640.25Y-41.7
X640.25Y-42.55
X640.25Y-84.45
X640.25Y-85.3
X640.25Y-86.15
X640.25Y-87.0
X640.25Y-87.85
X640.25Y-88.7
X640.25Y-89.55
X640.25Y-131.45
X640.25Y-132.3
X640.25Y-133.15
X640.25Y-134.0
X640.25Y-134.85
X640.25Y-135.7
X640.25Y-136.55
T2
X79.0Y-29.0
X79.0Y-36.0
X614.5Y-29.0
X614.5Y-36.0
T3
X54.639Y-48.719
X54.639Y-74.912
X57.02Y-151.112
X59.401Y-93.962
X61.782Y-113.012
X64.799Y-48.719
X64.799Y-74.912
X66.545Y-132.062
X67.18Y-151.112
X69.561Y-93.962
X71.942Y-113.012
X73.689Y-74.912
X76.705Y-132.062
X80.832Y-151.112
X83.214Y-93.962
X83.849Y-74.912
X87.976Y-113.012
X90.992Y-151.112
X92.739Y-48.719
X92.739Y-74.912
X93.374Y-93.962
X97.501Y-132.062
X98.136Y-113.012
X102.264Y-93.962
X102.899Y-48.719
X102.899Y-74.912
X104.645Y-151.112
X107.026Y-113.012
X107.661Y-132.062
X111.789Y-48.719
X111.789Y-74.912
X112.424Y-93.962
X114.805Y-151.112
X116.551Y-132.062
X117.186Y-113.012
X121.314Y-93.962
X121.949Y-48.719
X121.949Y-74.912
X126.076Y-113.012
X126.711Y-132.062
X130.839Y-48.719
X130.839Y-74.912
X131.474Y-93.962
X135.601Y-132.062
X136.236Y-113.012
X140.364Y-93.962
X140.999Y-48.719
X140.999Y-74.912
X145.126Y-113.012
X145.761Y-132.062
X149.889Y-48.719
X149.889Y-74.912
X150.524Y-93.962
X154.651Y-132.062
X155.286Y-113.012
X159.414Y-93.962
X160.049Y-48.719
X160.049Y-74.912
X164.176Y-113.012
X164.811Y-132.062
X168.939Y-74.912
X169.574Y-93.962
X173.701Y-132.062
X174.336Y-113.012
X176.082Y-151.112
X178.464Y-48.719
X178.464Y-93.962
X179.099Y-74.912
X183.226Y-113.012
X183.861Y-132.062
X186.242Y-151.112
X187.989Y-74.912
X188.624Y-48.719
X188.624Y-93.962
X192.751Y-132.062
X193.386Y-113.012
X197.514Y-48.719
X197.514Y-93.962
X198.149Y-74.912
X202.276Y-113.012
X202.911Y-132.062
X207.039Y-74.912
X207.674Y-48.719
X207.674Y-93.962
X211.801Y-132.062
X212.436Y-113.012
X216.564Y-48.719
X216.564Y-93.962
X217.199Y-74.912
X221.326Y-113.012
X221.961Y-132.062
X226.089Y-74.912
X226.724Y-48.719
X226.724Y-93.962
X230.851Y-132.062
X231.486Y-113.012
X235.614Y-48.719
X235.614Y-93.962
X236.249Y-74.912
X240.376Y-113.012
X241.011Y-132.062
X245.139Y-74.912
X245.774Y-48.719
X245.774Y-93.962
X247.52Y-151.112
X249.901Y-132.062
X250.536Y-113.012
X254.664Y-93.962
X255.299Y-74.912
X257.68Y-151.112
X259.426Y-113.012
X260.061Y-132.062
X264.189Y-48.719
X264.189Y-74.912
X264.824Y-93.962
X268.951Y-132.062
X269.586Y-113.012
X271.332Y-151.112
X273.714Y-93.962
X274.349Y-48.719
X274.349Y-74.912
X278.476Y-113.012
X279.111Y-132.062
X281.493Y-151.112
X283.239Y-48.719
X283.239Y-74.912
X283.874Y-93.962
X288.636Y-113.012
X292.764Y-93.962
X293.399Y-48.719
X293.399Y-74.912
X295.145Y-151.112
X302.289Y-48.719
X302.924Y-93.962
X304.67Y-132.062
X305.305Y-151.112
X309.433Y-113.012
X311.814Y-74.912
X312.449Y-48.719
X314.83Y-132.062
X316.576Y-93.962
X318.957Y-151.112
X319.592Y-113.012
X321.339Y-48.719
X321.974Y-74.912
X326.736Y-93.962
X329.118Y-151.112
X331.499Y-48.719
X364.201Y-132.062
X364.201Y-151.112
X373.726Y-48.719
X373.726Y-93.962
X373.726Y-113.012
X374.361Y-132.062
X374.361Y-151.112
X383.251Y-132.062
X383.251Y-151.112
X383.886Y-48.719
X383.886Y-93.962
X383.886Y-113.012
X392.776Y-48.719
X392.776Y-93.962
X392.776Y-113.012
X393.411Y-132.062
X393.411Y-151.112
X402.936Y-48.719
X402.936Y-93.962
X402.936Y-113.012
X411.826Y-48.719
X411.826Y-93.962
X411.826Y-113.012
X421.986Y-48.719
X421.986Y-93.962
X421.986Y-113.012
X484.264Y-48.719
X484.264Y-67.769
X484.264Y-86.819
X484.264Y-105.869
X493.789Y-124.919
X494.424Y-48.719
X494.424Y-67.769
X494.424Y-86.819
X494.424Y-105.869
X503.314Y-48.719
X503.314Y-67.769
X503.314Y-86.819
X503.314Y-105.869
X503.949Y-124.919
X513.474Y-48.719
X513.474Y-67.769
X513.474Y-86.819
X513.474Y-105.869
X522.364Y-48.719
X522.364Y-67.769
X522.364Y-86.819
X522.364Y-105.869
X522.364Y-124.919
X532.524Y-48.719
X532.524Y-67.769
X532.524Y-86.819
X532.524Y-105.869
X532.524Y-124.919
X541.414Y-48.719
X541.414Y-77.294
X541.414Y-115.394
X551.574Y-48.719
X551.574Y-77.294
X551.574Y-115.394
X569.989Y-105.869
X569.989Y-124.919
X580.149Y-105.869
X580.149Y-124.919
X589.039Y-105.869
X589.039Y-124.919
X599.199Y-105.869
X599.199Y-124.919
X608.089Y-105.869
X608.089Y-124.919
X618.249Y-105.869
X618.249Y-124.919
T4
X55.909Y-46.179
X55.909Y-72.373
X58.29Y-148.572
X60.671Y-91.422
X62.259Y-43.639
X62.259Y-69.832
X63.052Y-110.472
X64.64Y-146.032
X67.021Y-88.882
X67.815Y-129.523
X69.403Y-107.932
X74.165Y-126.982
X74.959Y-72.373
X81.309Y-69.832
X82.102Y-148.572
X84.484Y-91.422
X88.453Y-146.032
X89.246Y-110.472
X90.834Y-88.882
X94.009Y-46.179
X94.009Y-72.373
X95.596Y-107.932
X98.771Y-129.523
X100.359Y-43.639
X100.359Y-69.832
X103.534Y-91.422
X105.121Y-126.982
X105.915Y-148.572
X108.296Y-110.472
X109.884Y-88.882
X112.265Y-146.032
X113.059Y-46.179
X113.059Y-72.373
X114.646Y-107.932
X117.821Y-129.523
X119.409Y-43.639
X119.409Y-69.832
X122.584Y-91.422
X124.171Y-126.982
X127.346Y-110.472
X128.934Y-88.882
X132.109Y-46.179
X132.109Y-72.373
X133.696Y-107.932
X136.871Y-129.523
X138.459Y-43.639
X138.459Y-69.832
X141.634Y-91.422
X143.221Y-126.982
X146.396Y-110.472
X147.984Y-88.882
X151.159Y-46.179
X151.159Y-72.373
X152.746Y-107.932
X155.921Y-129.523
X157.509Y-43.639
X157.509Y-69.832
X160.684Y-91.422
X162.271Y-126.982
X165.446Y-110.472
X167.034Y-88.882
X170.209Y-72.373
X171.796Y-107.932
X174.971Y-129.523
X176.559Y-69.832
X177.352Y-148.572
X179.734Y-46.179
X179.734Y-91.422
X181.321Y-126.982
X183.702Y-146.032
X184.496Y-110.472
X186.084Y-43.639
X186.084Y-88.882
X189.259Y-72.373
X190.846Y-107.932
X194.021Y-129.523
X195.609Y-69.832
X198.784Y-46.179
X198.784Y-91.422
X200.371Y-126.982
X203.546Y-110.472
X205.134Y-43.639
X205.134Y-88.882
X208.309Y-72.373
X209.896Y-107.932
X213.071Y-129.523
X214.659Y-69.832
X217.834Y-46.179
X217.834Y-91.422
X219.421Y-126.982
X222.596Y-110.472
X224.184Y-43.639
X224.184Y-88.882
X227.359Y-72.373
X228.946Y-107.932
X232.121Y-129.523
X233.709Y-69.832
X236.884Y-46.179
X236.884Y-91.422
X238.471Y-126.982
X241.646Y-110.472
X243.234Y-43.639
X243.234Y-88.882
X246.409Y-72.373
X247.996Y-107.932
X248.79Y-148.572
X251.171Y-129.523
X252.759Y-69.832
X255.14Y-146.032
X255.934Y-91.422
X257.521Y-126.982
X260.696Y-110.472
X262.284Y-88.882
X265.459Y-46.179
X265.459Y-72.373
X267.046Y-107.932
X270.221Y-129.523
X271.809Y-43.639
X271.809Y-69.832
X272.602Y-148.572
X274.984Y-91.422
X276.571Y-126.982
X278.952Y-146.032
X279.746Y-110.472
X281.334Y-88.882
X284.509Y-46.179
X284.509Y-72.373
X286.096Y-107.932
X290.859Y-43.639
X290.859Y-69.832
X294.034Y-91.422
X296.415Y-148.572
X300.384Y-88.882
X302.765Y-146.032
X303.559Y-46.179
X305.94Y-129.523
X309.909Y-43.639
X310.702Y-110.472
X312.29Y-126.982
X313.084Y-72.373
X317.053Y-107.932
X317.846Y-91.422
X319.434Y-69.832
X320.227Y-148.572
X322.609Y-46.179
X324.196Y-88.882
X326.577Y-146.032
X328.959Y-43.639
X365.471Y-129.523
X365.471Y-148.572
X371.821Y-126.982
X371.821Y-146.032
X374.996Y-46.179
X374.996Y-91.422
X374.996Y-110.472
X381.346Y-43.639
X381.346Y-88.882
X381.346Y-107.932
X384.521Y-129.523
X384.521Y-148.572
X390.871Y-126.982
X390.871Y-146.032
X394.046Y-46.179
X394.046Y-91.422
X394.046Y-110.472
X400.396Y-43.639
X400.396Y-88.882
X400.396Y-107.932
X413.096Y-46.179
X413.096Y-91.422
X413.096Y-110.472
X419.446Y-43.639
X419.446Y-88.882
X419.446Y-107.932
X485.534Y-46.179
X485.534Y-65.229
X485.534Y-84.279
X485.534Y-103.329
X491.884Y-43.639
X491.884Y-62.689
X491.884Y-81.739
X491.884Y-100.789
X495.059Y-122.379
X501.409Y-119.839
X504.584Y-46.179
X504.584Y-65.229
X504.584Y-84.279
X504.584Y-103.329
X510.934Y-43.639
X510.934Y-62.689
X510.934Y-81.739
X510.934Y-100.789
X523.634Y-46.179
X523.634Y-65.229
X523.634Y-84.279
X523.634Y-103.329
X523.634Y-122.379
X529.984Y-43.639
X529.984Y-62.689
X529.984Y-81.739
X529.984Y-100.789
X529.984Y-119.839
X542.684Y-46.179
X542.684Y-74.754
X542.684Y-112.854
X549.034Y-43.639
X549.034Y-72.214
X549.034Y-110.314
X571.259Y-103.329
X571.259Y-122.379
X577.609Y-100.789
X577.609Y-119.839
X590.309Y-103.329
X590.309Y-122.379
X596.659Y-100.789
X596.659Y-119.839
X609.359Y-103.329
X609.359Y-122.379
X615.709Y-100.789
X615.709Y-119.839
T5
X59.687Y-125.078
X83.563Y-125.078
X131.162Y-144.127
X231.162Y-144.127
X297.812Y-125.078
X302.575Y-106.027
X304.956Y-67.927
X321.688Y-125.078
X326.45Y-106.027
X328.832Y-67.927
X486.931Y-117.934
X510.807Y-117.934
X539.509Y-65.356
X539.509Y-89.232
X539.509Y-103.456
X539.509Y-127.332
T6
X59.687Y-140.317
X59.719Y-48.719
X59.719Y-74.912
X62.1Y-151.112
X64.481Y-93.962
X66.862Y-113.012
X71.625Y-132.062
X78.769Y-74.912
X83.563Y-140.317
X85.912Y-151.112
X88.294Y-93.962
X93.056Y-113.012
X97.819Y-48.719
X97.819Y-74.912
X102.581Y-132.062
X107.344Y-93.962
X109.725Y-151.112
X112.106Y-113.012
X116.869Y-48.719
X116.869Y-74.912
X121.631Y-132.062
X126.394Y-93.962
X131.156Y-113.012
X131.162Y-159.368
X135.919Y-48.719
X135.919Y-74.912
X140.681Y-132.062
X145.444Y-93.962
X150.206Y-113.012
X154.969Y-48.719
X154.969Y-74.912
X159.731Y-132.062
X164.494Y-93.962
X169.256Y-113.012
X174.019Y-74.912
X178.781Y-132.062
X181.162Y-151.112
X183.544Y-48.719
X183.544Y-93.962
X188.306Y-113.012
X193.069Y-74.912
X197.831Y-132.062
X202.594Y-48.719
X202.594Y-93.962
X207.356Y-113.012
X212.119Y-74.912
X216.881Y-132.062
X221.644Y-48.719
X221.644Y-93.962
X226.406Y-113.012
X231.162Y-159.368
X231.169Y-74.912
X235.931Y-132.062
X240.694Y-48.719
X240.694Y-93.962
X245.456Y-113.012
X250.219Y-74.912
X252.6Y-151.112
X254.981Y-132.062
X259.744Y-93.962
X264.506Y-113.012
X269.269Y-48.719
X269.269Y-74.912
X274.031Y-132.062
X276.412Y-151.112
X278.794Y-93.962
X283.556Y-113.012
X288.319Y-48.719
X288.319Y-74.912
X297.812Y-140.317
X297.844Y-93.962
X300.225Y-151.112
X302.575Y-121.267
X304.956Y-83.167
X307.369Y-48.719
X309.75Y-132.062
X314.512Y-113.012
X316.894Y-74.912
X321.656Y-93.962
X321.688Y-140.317
X324.037Y-151.112
X326.419Y-48.719
X326.45Y-121.267
X328.832Y-83.167
X369.281Y-132.062
X369.281Y-151.112
X378.806Y-48.719
X378.806Y-93.962
X378.806Y-113.012
X388.331Y-132.062
X388.331Y-151.112
X397.856Y-48.719
X397.856Y-93.962
X397.856Y-113.012
X416.906Y-48.719
X416.906Y-93.962
X416.906Y-113.012
X486.931Y-133.174
X489.344Y-48.719
X489.344Y-67.769
X489.344Y-86.819
X489.344Y-105.869
X498.869Y-124.919
X508.394Y-48.719
X508.394Y-67.769
X508.394Y-86.819
X508.394Y-105.869
X510.807Y-133.174
X527.444Y-48.719
X527.444Y-67.769
X527.444Y-86.819
X527.444Y-105.869
X527.444Y-124.919
X546.494Y-48.719
X546.494Y-77.294
X546.494Y-115.394
X554.749Y-65.356
X554.749Y-89.232
X554.749Y-103.456
X554.749Y-127.332
X575.069Y-105.869
X575.069Y-124.919
X594.119Y-105.869
X594.119Y-124.919
X613.169Y-105.869
X613.169Y-124.919
M30
